<svg xmlns="http://www.w3.org/2000/svg" viewBox="0 0 1029.18 339.2"><defs><style>.cls-1{fill:#fff;}</style></defs><g id="Layer_2" data-name="Layer 2"><g id="Layer_1-2" data-name="Layer 1"><path class="cls-1" d="M624.74,212.49c-10.09-20.2-20.12-40.44-30.31-60.6-1.18-2.33-.84-3.49,1.16-5A59.8,59.8,0,0,0,616,121a74.84,74.84,0,0,0,5.53-22.73,91.13,91.13,0,0,0-1.07-23.66c-1.77-9.68-5-18.78-10.69-26.85-10.13-14.34-24.29-22.65-41-27-9.72-2.52-19.66-3.11-29.63-3.13q-45.84-.11-91.68,0c-3.14,0-3.33.19-3.33,3.34V212c0,2.77.19,3,2.94,3q30.8,0,61.57,0c2.89,0,3-.18,3-3.09q0-23.09,0-46.17c0-2.93.25-3.17,3.28-3.17s6.2.19,9.27-.06c2.64-.21,4,.88,5,3.17,6.93,15.78,14,31.5,20.9,47.28a2.91,2.91,0,0,0,3,2.06q35.08,0,70.17,0C625.46,214.94,625.7,214.41,624.74,212.49Zm-79.17-104a23.06,23.06,0,0,1-11.92,3.78c-7,.33-14,.19-21,.29-1.93,0-2.18-1.15-2.18-2.67,0-6.26,0-12.51,0-18.76s0-12.21,0-18.31c0-2,.64-2.87,2.75-2.81,7.08.18,14.18,0,21.24.39,5.87.31,11.27,2.26,15.05,7.1C555.81,85.67,555.69,101.77,545.57,108.52Z"/><path class="cls-1" d="M1028.93,212.75q-7.37-19.67-14.7-39.34-9.54-25.47-19.12-50.94-9.23-24.63-18.39-49.29c-6.55-17.56-13.16-35.09-19.58-52.7-.86-2.36-2.09-2.89-4.32-2.88-10.64.07-21.28,0-31.92,0-11,0-22,0-33,0-1.89,0-3,.47-3.67,2.49-1.11,3.59-2.56,7.08-3.88,10.61Q875,44.87,869.7,59,863.82,74.8,858,90.59q-5.25,14.18-10.53,28.36-5.82,15.66-11.67,31.32-5.74,15.43-11.51,30.89c-3.85,10.37-7.64,20.76-11.49,31.14-.87,2.34-.87,2.42,1.76,2.43h16.75c16.3,0,32.6,0,48.9,0,1.81,0,2.85-.39,3.48-2.29,2.16-6.5,4.62-12.9,6.77-19.4.71-2.13,1.69-3,4-3,17.21.1,34.42,0,51.62,0,3.47,0,3.45.1,4.56,3.37,2.15,6.35,4.43,12.65,6.6,19,.57,1.67,1.55,2.26,3.36,2.25,11-.09,22,0,33,0h33.28C1028.2,214.72,1029.79,215,1028.93,212.75ZM936.4,145.37q-15.49-.06-31,0c-1.81,0-2.41-.49-1.78-2.44,5-15.46,9.89-31,14.82-46.44q.78-2.42,1.55-4.83l1.08-.06c.84,2.43,1.72,4.85,2.51,7.29,3.17,9.73,6.3,19.46,9.46,29.19,1.64,5.08,3.31,10.16,5,15.23C938.5,144.77,937.94,145.37,936.4,145.37Z"/><path class="cls-1" d="M424.67,212.43c-1.12-2.63-2.12-5.31-3.11-8-3.87-10.44-7.68-20.91-11.58-31.35s-7.89-20.82-11.78-31.26c-5.1-13.68-10.1-27.4-15.2-41.08s-10.35-27.46-15.5-41.2c-4.88-13-9.8-26.06-14.52-39.16-.82-2.25-2-2.8-4.15-2.79-14.64.06-29.27,0-43.91,0-7.1,0-14.19,0-21.28,0-1.78,0-3,.41-3.56,2.34-.83,2.73-2,5.37-3,8.05q-5.21,14-10.41,27.93Q261.46,70.1,256.23,84.3t-10.52,28.36q-5.72,15.47-11.42,30.92-4.71,12.71-9.46,25.39l-10.48,28.14c-2.09,5.63-4.16,11.27-6.41,17.36,1.34.11,2.28.25,3.23.25,21.58,0,43.16,0,64.74.07,2.38,0,3.33-.94,4-2.95,2.16-6.42,4.45-12.8,6.63-19.21.62-1.82,1.63-2.52,3.65-2.51,17.28.08,34.56.11,51.84,0,2.67,0,3.68,1,4.44,3.32,2.1,6.36,4.37,12.66,6.61,19,.45,1.29.93,2.38,2.77,2.38q33.61-.11,67.23,0C424.9,214.74,425.42,214.18,424.67,212.43ZM332,145.34q-15,0-30.07,0c-2.9,0-3.08-.17-2.21-2.94,3.55-11.26,7.16-22.5,10.72-33.75,1.43-4.52,2.8-9.06,4.23-13.57.38-1.18.9-2.32,1.35-3.47l.78,0a12.81,12.81,0,0,1,1,1.92c2.66,8.23,5.25,16.48,7.91,24.71s5.3,16.3,8,24.44C334.36,144.84,334.12,145.34,332,145.34Z"/><path class="cls-1" d="M659.2,17.63c11.55,0,23.09.05,34.63-.05A3.47,3.47,0,0,1,697.45,20q11.29,26.72,22.6,53.42c1.23,2.91,2.36,5.87,3.62,8.76a7.09,7.09,0,0,0,1.4,1.57,9.92,9.92,0,0,0,1.06-1.58q10.49-25.22,20.94-50.45c1.59-3.82,3.33-7.58,4.93-11.39a3.83,3.83,0,0,1,4.06-2.73c23.09.09,46.18.05,69.27.08a13.54,13.54,0,0,1,2.74.58,17,17,0,0,1-.89,2.69q-11.23,21-22.51,42Q789,92.3,773.23,121.68c-4.51,8.43-9.08,16.83-13.51,25.3a8.46,8.46,0,0,0-.61,3.71q0,30.56,0,61.1c0,2.25-.53,3-2.88,3-20.82-.08-41.64,0-62.47-.05-2.85,0-2.88-.08-2.88-2.92,0-20.14.08-40.29-.08-60.42,0-2.18-1.13-4.49-2.19-6.5Q673,115.21,657.14,85.65,640.84,55,624.52,24.44q-1.15-2.19-2.33-4.38c-1-1.84-.66-2.42,1.47-2.43,7.55,0,15.09,0,22.64,0Z"/><path class="cls-1" d="M11.74,55.44c-.23,4.83-.71,9.48-.63,14.12.48,27.88,10.93,51.31,32,69.69a74.16,74.16,0,0,0,28.63,15.43C83.3,158,95,158.29,106.93,157.6c11.73-.68,22-4.56,30.38-12.68a54.78,54.78,0,0,0,7.77-9.92,10.36,10.36,0,0,1,9.7-5.3c16.67.15,33.35.06,50,.06,3,0,3.16.25,2.36,3.14-1.4,5.08-2.46,10.28-4.23,15.23-6.79,19-18,34.84-34.46,46.76A96.74,96.74,0,0,1,140,209.31c-15.9,4.82-32.2,6.73-48.75,4.63a144.14,144.14,0,0,1-22.15-4.26A90.32,90.32,0,0,1,23.17,179,100.84,100.84,0,0,1,3.59,138.23a134.27,134.27,0,0,1-2-51.68A109.86,109.86,0,0,1,10,58,17.28,17.28,0,0,1,11.74,55.44Z"/><path class="cls-1" d="M79,150c-2.25-.61-4.52-1.12-6.74-1.83-16.45-5.28-29.52-15.29-39.39-29.28C20.94,102,16,82.92,17.43,62.27c1-14.65,7.16-27.23,17.14-37.72,5.55-5.84,12.62-10,19.87-13.61A99.74,99.74,0,0,1,89.91,1C95.43.44,101-.22,106.53.07a125.75,125.75,0,0,1,32,5.44,144.76,144.76,0,0,1,28.27,13c7.19,4.17,14.78,7.47,23.06,8.9a10.45,10.45,0,0,1,1.3.52c-.84.55-1.35,1.13-1.94,1.23-7.57,1.34-15.11,3-22.74,3.8-14.76,1.56-29.64,2.17-44.36,4.06S93.71,43.45,82,52.79c-9.64,7.69-17.44,17-21.27,28.92a65.66,65.66,0,0,0-2,31.09c1.79,11,7,20.27,13.26,29.13,1.58,2.24,3.92,3.94,5.92,5.89.49.48,1,.93,1.51,1.4Z"/><path class="cls-1" d="M72.71,71.1c.8-1.15,1.51-2.37,2.4-3.43A67.86,67.86,0,0,1,111.5,45c11.5-2.93,23.2-3.76,34.92-4.61,14.22-1,28.47-1.81,42.39-5.11a85.56,85.56,0,0,0,24.84-10c3.46-2.1,7.27-3.63,10.76-5.67,2.59-1.52,4.91-3.48,7.38-5.2a3.42,3.42,0,0,1,1.91-.79c.31,0,.72,1.05.81,1.66,2.77,19.93-2.42,37.25-16.77,51.69a55.9,55.9,0,0,1-23.56,14.62A58.69,58.69,0,0,1,162.9,82.7c-10.91-2.62-20-8.27-28.43-15.55-10-8.61-22-11-34.74-9.46-10.07,1.19-18.57,5.89-25.74,13l-.77.74Z"/><path class="cls-1" d="M793.42,306.21a51.2,51.2,0,0,0-1.23-7.81c-1.59-6.25-4.38-11.89-9.45-16.1-7.92-6.59-17.2-8.37-27.16-7.1a30.28,30.28,0,0,0-16.42,6.94c-9.34,8.14-12,18.62-10.23,30.49,1,6.8,3.68,12.93,8.92,17.58a32.4,32.4,0,0,0,22.39,8.56,71.46,71.46,0,0,0,7.77-1,29.36,29.36,0,0,0,13.44-5.48,25.07,25.07,0,0,0,9-10.54c-1.28-.09-2.08-.19-2.88-.2-4.15,0-8.31-.11-12.45.05a8.31,8.31,0,0,0-3.92,1.25c-4.59,2.91-9.57,3.17-14.6,2.06a10.38,10.38,0,0,1-7.33-5.94c-1.08-2.37-1.72-4.94-2.58-7.41-.61-1.77.14-2.34,1.83-2.31,2.26.05,4.52,0,6.79,0h35.31C793.59,309.27,793.7,309.25,793.42,306.21Zm-18.88-2.85c-4.37,0-8.75,0-13.12,0s-8.45-.05-12.67,0c-1.91,0-2.52-.52-2.06-2.55,1.11-4.9,3-9.43,7.71-11.63,7.86-3.66,16.85-1.73,20.59,7.53.56,1.39.88,2.88,1.36,4.3C776.94,302.74,776.26,303.37,774.54,303.36Z"/><path class="cls-1" d="M413.23,306.53c-.63-3.25-.82-6.6-1.71-9.77a28,28,0,0,0-12.92-17.29,34.32,34.32,0,0,0-20-4.57c-9.43.57-17.43,4-23.71,11.37-8.17,9.62-8.18,26.3-3,36.37,4.88,9.54,13.37,14.06,23.12,15.92,7.61,1.46,15.29-.33,22.31-3.88A28.06,28.06,0,0,0,410.18,322a8.54,8.54,0,0,0-1.63-.39c-5,0-10,0-14.94,0a3.23,3.23,0,0,0-1.86.63c-3.87,3.15-8.44,3.48-13.08,3.13-3.86-.3-7.23-2-9.09-5.5a66.57,66.57,0,0,1-3.28-8.32c-.63-1.73.2-2.31,1.89-2.28,2.94.07,5.88,0,8.82,0,11.24,0,22.48,0,33.72,0C412.82,309.31,413.65,308.7,413.23,306.53ZM392,303.35H381.13c-4.3,0-8.61,0-12.91,0-1.91,0-2.34-.72-1.88-2.51,1.15-4.48,2.67-8.88,6.92-11.21,8.09-4.45,18.89-2.53,22.2,9.1C396.77,303.34,396.75,303.35,392,303.35Z"/><path class="cls-1" d="M497.62,303.83a58.23,58.23,0,0,0-1.17-10.28c-1.64-8.37-6.83-13.58-14.82-16.36-7.53-2.61-15.12-2.47-22.75-.86-7.47,1.57-13,5.65-16.06,12.84-1.1,2.62-.77,3.14,2.12,3.14,3.77,0,7.55-.08,11.32,0a5.34,5.34,0,0,0,4.65-2c5-5.79,14.77-4.1,17.39,3.11.86,2.39.67,5.18.78,7.79.11,2.83-.08,2.9-2.89,2.92-7.84.06-15.7-.14-23.52.34a17,17,0,0,0-8.49,3.15c-6.35,4.61-7.33,12.35-5,19.65,2.49,7.81,9.31,10.14,16.46,11.44,2.83.51,5.68-.19,8.58-.92,5.42-1.36,9.95-3.75,13.55-8,.9-1.06,1.89-2,3.24-3.51,1.17,3.19,2.18,5.69,3,8.25a3,3,0,0,0,3.3,2.42c2.49-.07,5,0,7.47,0,2.71,0,2.9-.19,2.9-3C497.68,323.88,497.77,313.85,497.62,303.83Zm-18.18,9c.32,7.26-2.46,11.93-8.65,14.27a11,11,0,0,1-11.28-1.68c-3-2.43-3.68-5.74-2.69-9.38a7.18,7.18,0,0,1,6.24-5.49,129.85,129.85,0,0,1,14.64-.61C480.22,309.93,479.31,312.13,479.44,312.83Z"/><path class="cls-1" d="M247.21,298c-.68,0-1.36,0-2,0-3.75.27-6.83-.23-9.81-3.4-4.43-4.71-10.39-4.85-16.13-2.24-5.34,2.43-7.52,7.14-7.91,12.76-.36,5.17.66,9.91,4.59,13.67,5.28,5.06,16.17,5.57,21.64-1.94a4.68,4.68,0,0,1,4.38-2.09c4.22.1,8.45,0,12.67,0,2,0,2.28.52,1.7,2.49-3,10.07-9.89,16.23-19.45,19.87a31.33,31.33,0,0,1-17.53,1.38c-11-2.31-20.42-7.61-24.45-19.1-4.76-13.59-2.82-29.29,10.52-38.95a30.6,30.6,0,0,1,14.94-5.4c7.31-.76,14.52-.09,21.14,3.33,7.19,3.72,12.27,9.35,14.54,17.32.54,1.89-.12,2.3-1.78,2.27C251.89,298,249.55,298,247.21,298Z"/><path class="cls-1" d="M675.6,336.52c-3.1,0-6.19,0-9.28,0a2.68,2.68,0,0,1-2.87-2q-9.78-27.18-19.6-54.36c-1.13-3.16-.92-3.42,2.5-3.42,4.75,0,9.51.1,14.25-.05,2-.06,3.1.68,3.58,2.58,1.32,5.33,2.71,10.65,4,16s2.64,10.83,3.95,16.25c.6,2.51,2.61,2,4.38,2.07,1.58.05,2.4-.55,2.81-2.22,2.68-10.81,5.5-21.59,8.2-32.4.43-1.74,1.32-2.27,3-2.24,5.2.08,10.4.06,15.61,0,1.84,0,2.44.47,1.73,2.41q-8.67,23.75-17.22,47.54c-.89,2.47-2,4.9-2.62,7.44-.52,2-1.62,2.47-3.43,2.43C681.63,336.47,678.61,336.53,675.6,336.52Z"/><path class="cls-1" d="M533.05,306c0-3.85-.11-7.7,0-11.54.08-2.15-.75-2.82-2.78-2.69s-4.07,0-6.11.06c-1.69.08-2.29-.65-2.27-2.27,0-3.54,0-7.09,0-10.63,0-1.62.67-2.2,2.32-2.29a22.28,22.28,0,0,0,6.2-1c3.61-1.27,5.69-4.07,6.44-7.82.45-2.22.89-4.44,1.22-6.67.2-1.36.83-2,2.22-2,3.24,0,6.49,0,9.73,0,1.64,0,2.31.73,2.29,2.34,0,4.15.06,8.3-.06,12.45,0,2,.63,2.9,2.73,2.83,3.09-.1,6.19,0,9.28-.06,1.56,0,2.19.66,2.18,2.17q0,5.21,0,10.41c0,1.68-.79,2.23-2.39,2.19-3.17-.07-6.34,0-9.51,0-1.47,0-2.28.55-2.27,2.11.06,5.28-.08,10.57.19,15.84.34,6.91,4.07,10.5,11,11,3.84.29,3.84.29,3.84,4.25,0,3.09-.08,6.19,0,9.28.07,1.83-.56,2.62-2.45,2.59-4.3-.07-8.64.35-12.89-.1q-17.31-1.85-18.74-18.64c-.34-3.89-.06-7.84-.06-11.76Z"/><path class="cls-1" d="M302.78,288.87c1.36-1.83,2.42-3.06,3.27-4.43,4.3-6.91,11-8.08,18.33-7.61a2.39,2.39,0,0,1,1.59,1.71c.13,4.89.09,9.79.07,14.69,0,1.64-1.12,1.78-2.46,1.94a65,65,0,0,0-10,1.62c-4.28,1.24-6.55,4.76-7.61,8.83a38,38,0,0,0-1.06,8.71c-.15,6.48,0,13,0,19.45,0,3-.13,3.14-3.22,3.14-4.45,0-8.9-.06-13.35,0-2,0-2.83-.71-2.82-2.78q.06-27.36,0-54.73c0-1.91.67-2.77,2.64-2.72,2.71.09,5.44-.11,8.13.1a3.51,3.51,0,0,1,2.5,1.65C300.18,281.6,301.28,284.87,302.78,288.87Z"/><path class="cls-1" d="M615.61,306.53c0,9.05-.06,18.09,0,27.13,0,2.15-.6,3-2.81,2.9-4.67-.13-9.35-.07-14,0-1.79,0-2.56-.61-2.56-2.51q.07-27.24,0-54.49c0-2,.7-2.87,2.77-2.83,4.67.08,9.35.1,14,0,2,0,2.59.82,2.58,2.7C615.58,288.45,615.61,297.49,615.61,306.53Z"/><path class="cls-1" d="M617.53,250.4c-.32,4-1.57,8-5.8,10.11a12,12,0,0,1-12.69-.66,10.5,10.5,0,0,1-3.78-5.17c-2.2-7-.4-14.27,6.35-16.44C610.41,235.41,617.45,240.69,617.53,250.4Z"/><path class="cls-1" d="M837.22,327.74c-.05,5.85-4.94,11.43-10.29,10.95-5.12-.45-10.39-3.68-10.29-11.13.09-7,4.65-10.43,10.44-10.57S837.27,321.76,837.22,327.74Z"/></g></g></svg>