<svg xmlns="http://www.w3.org/2000/svg" viewBox="0 0 816.63 511.88"><defs><style>.cls-1{fill:#fff;}</style></defs><g id="Layer_2" data-name="Layer 2"><g id="Layer_1-2" data-name="Layer 1"><path class="cls-1" d="M612.13.35c7.31,0,14.61,1.18,21.92,1.81l.22,0c47.29,3.31,99.54,10.9,136.43,43.42,26.52,23.38,41.77,58.05,45.1,93.25,3.8,40.18-5.36,84.19-28.87,117.08-33.65,47.06-98.09,59.84-151.39,44.65-40.2-11.46-71.12-47.67-83.45-86.54-11.72-36.95-13.23-94.2,9.21-128,2.7-4,6.64-6.69,10.7-9.16,4.68-2.84,9.93-4,15.29-4.72a32.25,32.25,0,0,1,26.3,8.08c3.17,2.79,5.83,6.22,6.26,10.84.18,1.9,1.23,3.77,1.21,5.65-.2,21.63-13,41.33-12.87,63.9.32,45.46,23.72,83.36,71,87.19,23.5,1.89,46.19-10.35,59.49-29.43,12.88-18.48,15.18-43.61,14-65.6-1-19.19-5.05-39.73-16.88-55.35C704,55.47,634.9,61.79,588.61,61.79q-101.9,0-203.8-.07c-5.67,0-11.34-.82-17-1.21-28.46-2-61.63-11.07-80.41-34.87a36.54,36.54,0,0,1-6.05-11.41,5.05,5.05,0,0,1-.16-1.56c0-6.16,5.61-12.18,11.76-12.44,4.44-.18,8.9-.11,13.35-.11C355.25.11,559.15.2,612.13.35Z"/><path class="cls-1" d="M247,291.51c0,6-2.12,11.43-8.2,14.06A18.9,18.9,0,0,1,232,307a58.57,58.57,0,0,1-17.37-1.88c-5-1.35-10.11-2.11-15-3.78a45,45,0,0,1-18.45-12.1c-3.38-3.64-6.44-7.62-7.9-12.41-1.23-4-2.59-8.24-2.63-12.38-.24-25.65-.12-51.29-.11-76.94,0-3.89-.12-4-4-3.26a11.42,11.42,0,0,1-2,.07h-82a11.57,11.57,0,0,1-2-.06c-4.6-.77-4.8-.61-4.8,3.9,0,26.48.1,53,0,79.43a35.74,35.74,0,0,1-14.19,29.07A45.58,45.58,0,0,1,46,304.57a80.23,80.23,0,0,1-30.21,3.06c-4.12-.4-8.34-1.36-11.42-4.67A16.49,16.49,0,0,1,.05,291.43q-.11-138,0-276.08c0-5.7,2-10.84,7.44-13.74A10.77,10.77,0,0,1,12.4.28c5.79.06,11.66-.16,17.33.78,7.85,1.3,15.73,3,22.93,6.71C61.44,12.26,68.57,18.54,73,27.55a30.14,30.14,0,0,1,2.81,13.07c.13,24.52.06,49,.06,73.55,0,3.55,0,3.57,3.51,3.57h88.29c3,0,3,0,3-3,0-25.2-.05-50.39.06-75.58,0-2.63.86-5.27,1.43-7.89,2.19-10,8.59-16.8,17.21-21.66A73.41,73.41,0,0,1,201.5,4c3.72-1.26,7.72-1.7,11.6-2.49a64.38,64.38,0,0,1,25-.58c3.16.59,5.66,3.11,7,6.22a29.43,29.43,0,0,1,2,11.64C247,63.87,247.09,245.65,247,291.51Z"/><path class="cls-1" d="M396.89,94.41c33.36,0,66.71,0,100.07.06,5.55,0,10.62,1.86,13.39,7.17a16.63,16.63,0,0,1,1.4,11.63,81,81,0,0,1-2.16,9.11,40.76,40.76,0,0,1-3.88,7.58,42.38,42.38,0,0,1-14,13.55,54.09,54.09,0,0,1-16.55,6.65c-7,1.63-14,3-21.26,2.94-30.56-.16-61.13-.07-91.69-.07-2.73,0-2.91.18-2.91,3q0,44.7,0,89.39c0,2.53.69,3,3.15,2.59a14.22,14.22,0,0,1,2.68-.25c29.06,0,58.11-.15,87.17.1a65.68,65.68,0,0,1,20.43,3.53,57.06,57.06,0,0,1,25.21,17,81.15,81.15,0,0,1,9,12.84c1.95,3.37,3,7.27,4.51,10.89,1.47,3.44-1.08,9.73-3.9,11.91a17.72,17.72,0,0,1-11.07,3.63q-75.84.15-151.69,0a45.91,45.91,0,0,1-15.65-2.42c-2.64-.95-5.63-.9-8.33-1.72a60.85,60.85,0,0,1-20.61-11.11A53.43,53.43,0,0,1,283.89,271a32.06,32.06,0,0,1-2.71-11.64c-.18-49.86-.13-99.72-.1-149.59,0-5,1.64-9.52,6-12.44a16.92,16.92,0,0,1,9.55-2.87Q346.74,94.43,396.89,94.41Z"/><path class="cls-1" d="M467.18,423.47a18.92,18.92,0,0,1-3.07.61c-6.41,0-12.82,0-19.23.05a3.27,3.27,0,0,1-3.31-1.84c-1.53-3-3.1-6-4.58-9-2-4.16-4.12-8.3-5.9-12.56a23,23,0,0,1-1.37-6.24,46.1,46.1,0,0,1-.05-5.64c0-5.06,0-5,5-5.13a12,12,0,0,0,4.49-1.11c2.95-1.35,3.76-3.28,3.15-6.68a5.85,5.85,0,0,0-5.37-4.4,38.56,38.56,0,0,0-4.3-.05c-2,.09-2.88-1.05-2.91-2.86q-.1-5.2,0-10.4a2.7,2.7,0,0,1,3-2.91c4.23,0,8.5-.37,12.66.17,8.18,1.07,14.82,4.92,18.35,12.73,4.08,9,.73,18.45-6.23,24.24a38.23,38.23,0,0,1-3.45,2.11c-1.25.82-1.53,1.79-.71,3.24,2.1,3.71,4,7.53,6,11.29C461.83,413.71,464.36,418.29,467.18,423.47Z"/><path class="cls-1" d="M74.56,389.78V421c0,2.67-.34,3.08-2.93,3.1-5.58,0-11.16,0-16.74,0-2.33,0-3.39-.85-3.37-3.24q.07-9.57.51-19.13c.11-2.48-.36-3.28-2.93-3.29-2.41,0-4.83,0-7.24,0-1.76,0-2.65-.71-2.63-2.56q.06-6.56,0-13.11c0-1.77.84-2.44,2.49-2.44h8.14c1.65,0,2.27-.82,2.18-2.42-.22-3.51-.5-7-.51-10.53,0-3.28.32-6.57.47-9.85.08-1.8,1.21-2.22,2.75-2.22,5.66,0,11.32.05,17,0,2.2,0,2.88,1,2.87,3.05C74.53,368.82,74.56,379.3,74.56,389.78Z"/><path class="cls-1" d="M313.34,424.1h-7c-1.59,0-2.33-.74-2.31-2.37.05-3.77,0-7.54,0-11.31A2.61,2.61,0,0,1,307,407.5h1.36c4.86,0,7-3.06,5.46-7.76a3.76,3.76,0,0,0-4.1-2.83c-6,.34-5.78-.92-5.67-5.86,0-2,.06-4.08,0-6.11-.07-1.79.71-2.68,2.45-2.84.37,0,.73-.16,1.11-.2a5.6,5.6,0,0,0,3.83-9.21c-.73-.91-2.48-1.25-3.82-1.37-2.78-.27-3.54-.92-3.55-3.76,0-3.1.08-6.19,0-9.28-.08-2.12.72-3,2.88-3,3.7.09,7.43-.27,11.08.14,7.19.81,13,4,16.1,10.94a15.69,15.69,0,0,1-4.23,18.94,38,38,0,0,1-3.42,2.15,1.69,1.69,0,0,0-.75,1.2c0,.33.61.73,1,.9a15.13,15.13,0,0,1,9.31,9.62c4.2,12-3.77,22.3-14.77,24.74-2.52.56-5.27.08-7.91.08Z"/><path class="cls-1" d="M183.67,410c0,3.77-.08,7.54,0,11.31.06,2-.62,2.88-2.72,2.85q-8.47-.12-17,0c-2.08,0-2.77-.83-2.74-2.85.09-5.95-.25-11.93.14-17.86.31-4.54-1.26-8.11-3.68-11.68-4.71-7-9.23-14.07-13.81-21.12q-4.23-6.51-8.38-13.08c-1.1-1.72-.83-2.22,1.22-2.23,6.94,0,13.88.05,20.81,0,1.77,0,2.61,1,3.34,2.24,2.69,4.6,5.32,9.24,8,13.85Q175,382,181.18,392.56c1.59,2.73,2.95,5.42,2.54,8.82a74.53,74.53,0,0,0-.07,8.59Z"/><path class="cls-1" d="M28.67,390v30.32c0,3.08-.65,3.74-3.67,3.74H9.15c-2.62,0-3.16-.51-3.34-3.12,0-.45,0-.9,0-1.35V360.78c0-.3,0-.6,0-.9.08-4.4.25-4.56,4.55-4.56h14c3.59,0,4.28.69,4.28,4.39Z"/><path class="cls-1" d="M643.27,389.73c0,10.48,0,21,0,31.44,0,2.13-.66,3-2.85,3-5.58-.09-11.17-.08-16.75,0-2.15,0-2.9-.8-2.89-2.95q.09-31.32,0-62.65c0-2.88.36-3.22,3.28-3.22h15.61c3.3,0,3.52.19,3.52,3.42q0,15.5,0,31Z"/><path class="cls-1" d="M750,389.77q0-15.6,0-31.2c0-2.94.28-3.24,3.25-3.25q8.13,0,16.28,0c2.45,0,3.43,1,3.43,3.4,0,20.87,0,41.74,0,62.61,0,1.91-.92,2.7-2.5,2.72-6.18.08-12.36.05-18.54,0-1.91,0-2-1.39-2-2.86q0-15.72,0-31.42Z"/><path class="cls-1" d="M270.47,389.77q0-15.6,0-31.2c0-2.94.29-3.24,3.25-3.25q8.14,0,16.29,0c2.45,0,3.42,1,3.42,3.4q0,31.09,0,62.18c0,2.33-.91,3.19-3.35,3.19q-8.27,0-16.51,0c-2.84,0-3.12-.31-3.12-3.12Z"/><path class="cls-1" d="M687.35,390c-.92,4.9-1.29,10-2.89,14.65-2.38,7-7,12.68-14,15.52a98,98,0,0,1-13.28,3.8c-2,.5-3-.61-2.95-2.8.1-3.85.06-7.69,0-11.54a3.5,3.5,0,0,1,2.62-3.71A9.41,9.41,0,0,0,663,397.8c.2-3.06.62-6.12.6-9.18a38.61,38.61,0,0,0-.81-8.25,9.6,9.6,0,0,0-6.06-6.81c-1.68-.69-2.58-1.44-2.52-3.38.11-4.07,0-8.15,0-12.22,0-2.09,1-2.95,3-2.48,5.22,1.23,10.61,2,15.27,4.91a26.72,26.72,0,0,1,10.75,12.08c2.4,5.59,3.83,11.3,3.35,17.41Z"/><path class="cls-1" d="M783.59,415.25c0-1.28.08-2.57,0-3.85-.2-2.89.48-4.87,3.66-6,3.76-1.38,5.14-5.1,5.48-8.7a73.66,73.66,0,0,0,0-13.69c-.41-4.35-2.46-7.91-7-9.64a3.83,3.83,0,0,1-2.06-2.76c-.24-4.14-.14-8.29-.09-12.44a2.5,2.5,0,0,1,2.89-2.67,113,113,0,0,1,11.84,3.23c9.06,3.37,13.92,10.58,16.65,19.43.61,2,.47,4.17.88,6.22,1.1,5.55.2,11-.87,16.4-1.12,5.56-3.61,10.81-8,14.56a42.46,42.46,0,0,1-10,6.31c-3,1.34-6.47,1.81-9.79,2.33-2.65.42-3.56-.6-3.58-3.27v-5.43Z"/><path class="cls-1" d="M530.89,389.5q0-15.5,0-31c0-2.94.29-3.2,3.28-3.2,5.43,0,10.86,0,16.29,0,2,0,2.84.75,2.84,2.8q0,31.77,0,63.54c0,1.72-.72,2.49-2.42,2.48-5.89,0-11.77,0-17.65,0-1.94,0-2.39-1-2.38-2.73q0-15.93,0-31.88Z"/><path class="cls-1" d="M400.22,389.5q0-15.37,0-30.75c0-3.19.28-3.44,3.53-3.43,4.15,0,8.3.07,12.44,0,2.17-.06,2.93.8,2.93,2.93q-.06,31.65,0,63.31c0,1.81-.66,2.62-2.52,2.6q-6.9-.08-13.79,0c-1.95,0-2.65-.81-2.64-2.74.05-10.62,0-21.25,0-31.88Z"/><path class="cls-1" d="M600.91,493.45a53.61,53.61,0,0,1-.64-5.47c-.08-5.81,0-11.62,0-17.42,0-1.1.56-2.24.37-3.28-.33-1.76-1.75-2.56-3.39-3.23-1.07-.44-1.83-1.62-2.73-2.46,1.06-.53,2.1-1.48,3.19-1.53,4.06-.18,8.14-.06,12.22-.07,1.32,0,2.46.27,2.59,1.86s-.75,2.07-2.17,2.29c-2.81.44-3.54,1.37-3.54,4.25q0,19.58,0,39.14c0,1.21.48,2.62-1.28,3.2a3.62,3.62,0,0,1-4.3-1c-2.1-2.56-4.14-5.17-6.18-7.77l-19.64-25c-.24-.3-.43-.71-.74-.84a6,6,0,0,0-2.23-.56c-.2,0-.54,1.11-.52,1.71.14,6.82.38,13.65.49,20.48,0,1.7-.45,3.4-.47,5.1,0,2.44,1.08,3.31,3.45,3.89,1,.25,1.86,1.39,2.78,2.12-.93.73-1.82,2.05-2.77,2.09-4.37.23-8.75.2-13.12,0a3.29,3.29,0,0,1-2.18-2c-.48-1.4.84-1.91,1.94-2.23,3.41-1,3.81-1.49,3.82-4.95V469c0-3.33-.45-4-3.72-4.83-1.55-.36-2.24-1.08-2.08-2.64s1.52-1.4,2.58-1.47a27.25,27.25,0,0,0,3.84,0c4.47-.93,7,1.48,9.51,4.71,7.17,9.4,14.47,18.68,21.79,27.95a8,8,0,0,0,2.42,1.45Z"/><path class="cls-1" d="M805.92,500.3c-.89.49-1.11,2.17-1.67,3.28-.38.76-.72,1.94-1.3,2.09a4,4,0,0,1-2.56-.76,3.18,3.18,0,0,1-1.19-1.6c-.68-2-1.05-4.07-1.9-6a38.07,38.07,0,0,0-4.18-7.56c-1.79-2.32-2-2.35.58-3.84,4.67-2.71,7.34-6.44,7.35-12.22,0-9.05-6-12.6-12.26-13.28-8.44-.91-17-.4-25.55-.34-.83,0-1.65,1.14-2.47,1.74.76.73,1.41,1.86,2.31,2.13,3,.89,3.39,1.16,3.39,4.3q0,17,0,33.94c0,3.55,0,3.55-3.38,4.58a5.28,5.28,0,0,0-1.25.53c-1.47.9-1.46,2.37.11,3.13a6.6,6.6,0,0,0,2.62.54c2.48.07,5,0,7.47,0,2.71,0,5.44.14,8.14-.09a3.31,3.31,0,0,0,2.32-1.78c.53-1.45-.67-2.14-2-2.4a15.16,15.16,0,0,0-2-.14c-2.24-.17-3.28-1.18-3.32-3.42-.05-2.86,0-5.73,0-8.6.08-6.28-1.09-5.32,5.67-5.62,3.9-.18,5.62,2.27,6.9,5.84,1.42,3.92,2.47,8,4.22,11.78a9,9,0,0,0,9.49,5.12c4.45-.54,7-3.36,7.68-7.89C809.49,501.59,807.61,499.39,805.92,500.3ZM785,484.65a53.08,53.08,0,0,1-7.89.33c-1.37,0-2-.71-1.91-2.17.09-2.7,0-5.41,0-8.12h0c0-2.79,0-5.57,0-8.35,0-1.57.75-2.32,2.2-2.14,3.26.41,6.54.81,9.75,1.52,2.28.5,3.59,2.26,4.24,4.54a16.59,16.59,0,0,1-.17,9.57C790.38,482.85,787.83,484.18,785,484.65Z"/><path class="cls-1" d="M212.67,494.26c0-9.59,0-18.4,0-27.21,0-2.06-1.59-2.61-3.17-2.88-1.39-.24-2.61-.49-2.52-2.22s1.4-1.94,2.77-1.94c4.22,0,8.45-.05,12.67,0,2,0,3.1,1.22,2.47,2.56a3.19,3.19,0,0,1-2,1.42c-3,.7-3.64,1.4-3.64,4.43q0,19.33,0,38.68c0,1.56.07,3-1.84,3.63a3.53,3.53,0,0,1-4.17-1.41q-6.14-7.67-12.18-15.39c-4.8-6.08-9.55-12.2-14.38-18.26a9.31,9.31,0,0,0-2.25-1.4c-.08,1.26-.17,2-.17,2.7q0,12.66,0,25.33c0,3,.58,3.66,3.42,4.31,1.24.28,2.58.55,2.48,2.33s-1.5,2-2.73,2c-4.3.09-8.61.12-12.9-.05-.71,0-2-1.23-1.92-1.84a3.13,3.13,0,0,1,1.67-2.38c3.59-1.05,3.95-1.35,3.95-5.1v-32.8c0-3-.68-4.07-3.48-4.62-1.67-.32-2.43-1.05-2.24-2.7s1.58-1.51,2.77-1.52a34.55,34.55,0,0,0,5.19,0c3.08-.46,4.88,1.1,6.6,3.31,6.88,8.85,13.84,17.64,20.76,26.45.84,1.07,1.58,2.22,2.5,3.2A11.29,11.29,0,0,0,212.67,494.26Z"/><path class="cls-1" d="M427.73,500.33c-1.38-.78-2.3.46-2.69,1.85a7.77,7.77,0,0,1-.49,1.7c-.41.72-.91,1.73-1.55,1.88a2.58,2.58,0,0,1-2.25-.94,27,27,0,0,1-2.1-4.91c-1.34-4-2.28-8.11-5.88-10.85-1.2-.91-.91-1.77.22-2.49.57-.36,1.2-.63,1.79-1a12.21,12.21,0,0,0,5.72-6.11c1.21-3.28,2.12-6.81.25-10.19-1.09-2-2.17-4.17-3.84-5.57a16.33,16.33,0,0,0-10.86-3.65c-3.24,0-6.48,0-9.73,0V460c-4.22,0-8.45-.11-12.67.08-.83,0-1.61,1.2-2.41,1.85.71.69,1.31,1.75,2.15,2,3.24,1,3.49,1.19,3.49,4.46v33.48c0,3.69,0,3.62-3.53,5-.86.33-1.47,1.3-2.2,2,.82.69,1.6,1.42,2.47,2,.25.19.73.1,1.11.1,5,0,10.1,0,15.16,0a2.79,2.79,0,0,0,1.53-.23c.58-.45,1.37-1.16,1.35-1.74a3,3,0,0,0-1.25-2,4.33,4.33,0,0,0-2.17-.37c-2.9-.18-3.84-1.15-3.85-4.11,0-2.48,0-5,0-7.46,0-6.11,0-6,6.05-6.1a5.72,5.72,0,0,1,5.62,3.37,59.76,59.76,0,0,1,2.36,6.54,63.64,63.64,0,0,0,3.33,8.24c1.82,3.32,6.28,5.3,9.26,4.6,4.39-1,7.06-3.76,7.43-8.19A4.16,4.16,0,0,0,427.73,500.33ZM402.6,485.19c-1.66,0-3.32,0-5,0s-2.21-.61-2.18-2.16c.05-2.78,0-5.57,0-8.36s0-5.73,0-8.59c0-1.37.55-2.26,2-2.12,3,.29,6,.62,8.92,1.11a7,7,0,0,1,5.85,5.58C414,477.24,412.21,485.05,402.6,485.19Z"/><path class="cls-1" d="M369.28,481.93c-.87-5.93-2.35-11.58-6.94-15.64A30,30,0,0,0,353,460.4a23.77,23.77,0,0,0-10.79-.93,21.78,21.78,0,0,0-12.57,5.44c-6.05,5.56-8.59,12.62-8.6,22.25-.32,4,1.23,9.31,4.12,13.83,4.59,7.18,11.63,10.71,20.16,10.76a24.53,24.53,0,0,0,11.26-2.66,20.32,20.32,0,0,0,9.65-9.41C368.8,494.14,370.21,488.27,369.28,481.93Zm-13.7,19.5a12.86,12.86,0,0,1-21.59-1.6c-3.69-6.8-4.22-14.14-2.63-21.71.91-4.32,2.37-8.2,6-11.05,6.21-4.93,16.17-2.49,19.69,4.64,2.21,4.51,2.38,9.27,2.73,13.8C359.46,491.29,359.16,496.78,355.58,501.43Z"/><path class="cls-1" d="M484,499.76c0,2.86.16,5.74-.09,8.59a3.65,3.65,0,0,1-1.93,2.53c-1.2.48-2.82.41-3.41-1.27-.68-1.95-1.83-1.58-3.18-.85a23.21,23.21,0,0,1-13,3c-8.69-.72-15.79-4.48-19.77-12.44a29.77,29.77,0,0,1-2.64-17.7,26.76,26.76,0,0,1,5.37-13.53c4.1-5.17,9.45-7.74,15.94-8.69,3.7-.55,7.11.31,10.61.81,5.95.87,12.2,8,12.06,13.47-.06,2.56-2.65,5.42-5.36,5.93-1.42.26-4.7-1.82-5.21-3.75A5.71,5.71,0,0,1,474,472c1.74-3.24,1.39-4.68-1.91-6.31-7.62-3.77-15.49-1.28-19.56,5.15a18.59,18.59,0,0,0-2.62,7.76,66.28,66.28,0,0,0-.07,12.52c.83,9.7,8,16.85,18.48,15.37a10,10,0,0,0,8.15-7.5,3.9,3.9,0,0,0-3.58-5.11,13.8,13.8,0,0,1-3.7-.73,2.7,2.7,0,0,1-1.51-1.91,3.51,3.51,0,0,1,1.16-2.44,4.35,4.35,0,0,1,2.54-.67c3-.08,6-.08,9.05,0,2.78.06,3.62,1,3.63,3.68Z"/><path class="cls-1" d="M713.66,485.25c0-5.58,0-11.16,0-16.74,0-3.07-.41-3.71-3.33-4.39-1.41-.32-2.16-1-2.07-2.44s1.22-1.69,2.44-1.69h32.13c2.09,0,3.17.81,3.18,3.1s.38,4.78.57,7.17c.11,1.28-.27,2.39-1.7,2.42s-3.15.61-3.81-1.43a6.83,6.83,0,0,1-.35-1.52c-.29-3.7-2.39-5.51-6.26-5.64-3.24-.1-6.49,0-9.73-.05-1.7,0-2.45.52-2.43,2.33.07,5,0,9.95,0,14.93,0,1.39.46,2.18,1.91,2.18,2,0,3.93,0,5.88,0s3.72-.92,4-3.15c.28-1.95,1.88-1.89,3-1.91,1.32,0,1.94,1.11,1.92,2.54-.06,3,.11,6-.1,9-.06.88-1.12,2.39-1.67,2.38-1.06,0-2.72-.75-3-1.57-1-2.91-3-3.43-5.64-3.26-1.5.1-3,.05-4.52,0s-1.83.61-1.82,1.92c0,5.13.08,10.26,0,15.38,0,2.05,1.31,2.17,2.66,2.16,3.24,0,6.47-.24,9.7-.27,4.9-.05,6.38-1.15,8-5.87a4,4,0,0,1,1.59-2.28,4.07,4.07,0,0,1,3.14-.05c.6.3.88,1.68.9,2.59.05,2.1-.16,4.21-.23,6.32-.1,2.72-.92,3.59-3.72,3.61-4.23,0-8.45,0-12.68,0H711.29c-1.44,0-2.83,0-3.06-1.88s1.15-2.29,2.54-2.5c2.09-.31,2.93-1.44,2.91-3.53C713.62,497.16,713.66,491.21,713.66,485.25Z"/><path class="cls-1" d="M548.46,506.9c-2.82-.48-4.21-2.32-5-4.89-.52-1.71-1.13-3.4-1.78-5.07-2.77-7-5.6-14-8.36-21-.84-2.15-1.45-4.38-2.3-6.52-1.07-2.7-2.25-5.36-3.41-8-.81-1.83-2.52-1.52-3.93-1.32-1.16.16-2.81.57-3.26,1.4a90.2,90.2,0,0,0-3.79,8.79c-2.07,5.12-4,10.28-6.15,15.38q-3.37,8.16-6.92,16.26c-1,2.22-2.1,4.42-4.94,4.72a2.12,2.12,0,0,0-2.15,2.58c.13,1.57,1.22,1.87,2.57,1.86,4.45,0,8.9,0,13.35,0,1.53,0,2.93-.5,3-2.08s-1.38-2.27-3-2.34c-3.06-.13-4-1.52-2.94-4.43.53-1.48,1.31-2.87,1.82-4.36a3.23,3.23,0,0,1,3.48-2.54c3.84.08,7.7.23,11.53,0,3.65-.25,6.58.09,7.16,4.54a20.66,20.66,0,0,0,.92,2.29c.85,3.12.24,4-2.9,4.62-1.3.24-2.7.68-2.51,2.34.18,1.49,1.37,2,2.83,2,2.64,0,5.28,0,7.92,0v0c2.79,0,5.59.15,8.36-.08a3.37,3.37,0,0,0,2.41-1.75C551.05,507.65,549.73,507.12,548.46,506.9Zm-21.15-16.22c-1.73,0-3.46,0-5.2,0h-5.43c-1.49,0-2.15-.62-1.52-2.12,2.14-5.13,4.28-10.25,6.47-15.35.23-.52.83-.89,1.25-1.32a8.24,8.24,0,0,1,.87,1.44c1.78,4.94,3.48,9.91,5.31,14.84C529.75,490,529.18,490.71,527.31,490.68Z"/><path class="cls-1" d="M28.39,511H12.32a4.49,4.49,0,0,1-2-.16c-.7-.38-1.65-1.09-1.68-1.7s.81-1.42,1.39-2a2.22,2.22,0,0,1,1.25-.45c2.19-.34,3-1.71,3-3.79,0-11.61,0-23.22,0-34.83a3.68,3.68,0,0,0-3.46-4c-1.35-.22-2.61-.75-2.17-2.18a3.41,3.41,0,0,1,2.55-1.84C22.16,460,33.09,460,44,460a1.78,1.78,0,0,1,2.07,1.81c.28,2.44.84,4.85,1.14,7.29.17,1.37.54,3.06-1.48,3.48-1.73.36-3.51.51-4.24-1.74a17,17,0,0,1-.83-2.53c-.41-2.6-1.83-4.11-4.41-4.19-3.92-.11-7.85-.06-11.77-.1-1.45,0-2,.76-2,2.11,0,5.13-.08,10.26,0,15.38a2.55,2.55,0,0,0,1.61,1.86,57.63,57.63,0,0,0,7.43-.14c1.88-.12,2.83-1.31,3.41-3.1.26-.79,1.37-1.85,2.05-1.82.85,0,2.28,1,2.37,1.68a67.23,67.23,0,0,1,.57,9.82,2.88,2.88,0,0,1-2.85,2.69c-1.55.15-1.89-.94-2.38-2.16a3.94,3.94,0,0,0-4-2.81c-2.11.05-4.22,0-6.33,0-1.44,0-2,.58-2,2,0,5.12,0,10.25,0,15.38,0,1.56.77,2.15,2.25,2.1l12.18-.33c3-.08,4.26-1.08,5.33-3.89a19.08,19.08,0,0,1,1.71-3.41c1-1.62,2.54-1.56,4.19-1s1.39,2,1.23,3.18c-.33,2.58-.86,5.13-1.29,7.7C47.77,511,46.41,511,45.13,511,39.55,511,34,511,28.39,511Z"/><path class="cls-1" d="M139.06,511c-5.36,0-10.71,0-16.07,0a4.87,4.87,0,0,1-2.9-.89c-1.13-1-.2-2.83,1.53-3.36,3.51-1.07,3.82-1.49,3.82-5V469.13c0-3.18-.71-4.25-3.69-5a2.2,2.2,0,0,1-2-2.52c.07-1.66,1.29-1.63,2.43-1.64,10.72,0,21.43,0,32.15,0a2.45,2.45,0,0,1,2.77,2.32c.39,2.66.65,5.34.88,8,.08,1,.26,2.29-1.34,2.34s-3.28.69-4-1.45a34.07,34.07,0,0,1-1.27-3.59c-.57-2.54-2.44-3.38-4.64-3.48-3.69-.16-7.39,0-11.09-.08-1.62,0-2.09.66-2.07,2.16,0,4,0,8,0,12a11.37,11.37,0,0,1-.14,2c-.54,2.65-.11,3.21,2.63,3.26,1.51,0,3,0,4.52,0,2.44,0,4.41-.52,5.11-3.39a3.11,3.11,0,0,1,2.45-1.75c1.21.1,2.66.7,2.63,2.54-.05,2.94.19,5.9-.12,8.81a4,4,0,0,1-2.35,2.68,2.16,2.16,0,0,1-2.84-2.05c-.27-2-1.87-2.63-3.62-2.73-2.18-.12-4.37-.07-6.56-.06-1.79,0-2.1.86-2,2.63.2,4.64.16,9.3,0,13.94-.07,1.76.29,2.6,2.09,2.59,4.3,0,8.6,0,12.91,0a4.62,4.62,0,0,0,4.5-3.09c.51-1.17,1.19-2.28,1.6-3.48.75-2.2,2.46-2.25,4.23-2s1.57,1.81,1.47,3.07c-.19,2.53-.36,5.08-.78,7.59-.33,1.93-2,2.25-3.66,2.25Z"/><path class="cls-1" d="M684.77,464.71H670.93c-5.34,0-6.31,1.53-7.07,6.4-.41,2.69-1.38,4-3.34,3.44-1-.3-2.44-1.65-2.46-2.55a75.36,75.36,0,0,1,.63-10.28c.2-1.77,1.8-1.73,3.2-1.73l26.93,0a18.24,18.24,0,0,1,3.39,0c1,.19,2.56.55,2.82,1.24a4.52,4.52,0,0,1-.37,3.56C688.59,474,682.38,483,676.21,492.1c-2.49,3.67-5,7.33-7.42,11a13.5,13.5,0,0,0-.95,2.84h7.8c2.64,0,5.29-.16,7.92,0a6.33,6.33,0,0,0,6.52-6.5c-.07-1.84.27-3.44,2.33-4.09,1.82-.58,3.57.43,3.5,2.31-.12,3.53-.37,7-.79,10.55a3,3,0,0,1-3.28,2.75c-10.63,0-21.27,0-31.91,0-2.84,0-3.78-2.24-2.12-5.21,1.25-2.22,2.76-4.29,4.18-6.41q7.92-11.78,15.86-23.54c1.85-2.73,3.79-5.42,5.62-8.17A21.32,21.32,0,0,0,684.77,464.71Z"/><path class="cls-1" d="M257.08,460h18.33c3.29,0,3.69.47,3.84,3.75s.38,6.46.66,9.68c.22,2.61-.24,3.43-2.2,3.56-2.26.15-3.52-1-3.66-3.26,0-.45,0-.91-.07-1.36-.29-6.15-1.59-7.46-7.67-7.74h-.46c-4.53-.45-4.52-.45-4.52,4.25q0,16.74,0,33.48c0,3.4.49,4,3.77,4.3.3,0,.69-.05.88.11.86.71,1.67,1.49,2.49,2.24-.91.67-1.81,1.89-2.74,1.92q-8.7.27-17.42,0c-.94,0-1.84-1.23-2.77-1.89.89-.78,1.67-2,2.7-2.25,4.37-1.13,4.4-1,4.4-5.49V467.35c0-3-1-3.75-3.88-3.08a11,11,0,0,1-2.42.35c-4.49,0-5.56,2.18-6.36,6.08-.24,1.17-.28,2.38-.47,3.57-.36,2.32-1.16,2.91-3.49,2.72-2.07-.16-2.09-1.6-2-3.11q.38-5.82.79-11.66c.14-2.09,1.68-2.23,3.26-2.24Z"/><path class="cls-1" d="M68.64,460c2.64,0,5.28,0,7.92,0,1.44,0,2.87.21,2.92,2s-1.25,2-2.65,2.06c-3.13.27-3.69,1.41-2.59,4.27,2.16,5.64,4.17,11.34,6.27,17,1.39,3.78,2.77,7.58,4.29,11.31.25.61,1.18.94,1.79,1.39a9.91,9.91,0,0,0,1.09-1.69c1.43-3.62,2.78-7.26,4.18-10.89,2.13-5.5,4.36-11,6.41-16.51,1.16-3.16.12-4.57-3.36-4.87-1.56-.13-2.36-.81-2.31-2.42S93.8,460,95,460c4.67,0,9.35,0,14,0,1.34,0,2.27.49,2.36,1.85a2.05,2.05,0,0,1-1.85,2.37,6.78,6.78,0,0,0-5.07,4.35c-2.62,6.66-5.23,13.32-7.91,20-2.09,5.19-4.25,10.35-6.39,15.52a31.25,31.25,0,0,1-2.24,5.12A4.17,4.17,0,0,1,85,510.89,3.84,3.84,0,0,1,82,509.13c-2.62-5.75-5-11.62-7.46-17.44-1.9-4.47-3.84-8.92-5.77-13.37-1.55-3.57-3.17-7.11-4.64-10.72-.81-2-2.31-2.91-4.26-3.59A3.37,3.37,0,0,1,57.84,462c-.21-1.49,1.1-2,2.43-2C63.06,460,65.85,460,68.64,460Z"/><path class="cls-1" d="M178.47,368.71c2.27-3.88,4.57-7.65,6.7-11.52a3.23,3.23,0,0,1,3.23-1.89c6.25,0,12.5,0,18.75,0,2.45,0,2.93.7,1.65,2.81-2.41,3.95-5,7.81-7.49,11.72-3.39,5.3-6.87,10.55-10.12,15.94-1.19,2-2,1.43-2.9,0-1.54-2.48-3-5-4.41-7.56C182.07,375.08,180.27,371.89,178.47,368.71Z"/><path class="cls-1" d="M630.12,485.23c0-5.57,0-11.15,0-16.73,0-3-.75-3.7-3.62-4.49-.84-.22-1.43-1.35-2.13-2.06.78-.65,1.53-1.85,2.32-1.87q7.47-.27,14.93,0c.78,0,1.51,1.25,2.27,1.92-.72.69-1.33,1.77-2.18,2-2.61.73-3.56,1.66-3.57,4.35q0,17.19,0,34.38c0,2.61.7,3.16,3.3,4,1,.31,1.63,1.61,2.43,2.45-.89.62-1.76,1.73-2.67,1.76-4.74.18-9.5.12-14.25.06-1.19,0-2.79-.28-2.5-1.84a4,4,0,0,1,2.36-2.43c2.42-.81,3.27-1.55,3.28-4.08,0-5.81,0-11.61,0-17.42Z"/></g></g></svg>