<svg xmlns="http://www.w3.org/2000/svg" viewBox="0 0 1036.2 238.04"><defs><style>.cls-1{fill:#fff;}</style></defs><g id="Layer_2" data-name="Layer 2"><g id="Layer_1-2" data-name="Layer 1"><path class="cls-1" d="M945.37,71.62V86.89q0-7.64,0-15.27V55.79Q945.38,63.71,945.37,71.62Z"/><path class="cls-1" d="M1030.61,38.21c-6.75-17.22-19.45-27.93-36.82-33.42C982.52,1.23,970.81.4,959.14.18,940.36-.16,921.56.09,902.77.09c-3.27,0-3.27,0-3.27,3.27,0,28.52-.1,57,.07,85.54,0,6.31-3.37,10.88-6.34,15.78-1.48,2.44-3.42,4.61-4.69,7.13-2.15,4.23-4,8.6-5.81,13a4.28,4.28,0,0,1-4.26,3c-8.36.4-16.73.84-25.09,1.25a7.11,7.11,0,0,1-1-.13l-.49-.69a16.48,16.48,0,0,0,1.89-1.16c8.14-6.75,13.37-15.43,16.67-25.35A92.43,92.43,0,0,0,874.69,73c.08-12.45-1.28-24.66-6.17-36.3-6.72-16-18.8-26.06-35-31.51C822,1.27,809.89.41,797.84.19,778.91-.17,760,.09,741,.09c-2.82,0-3,.16-3,2.93q0,68.69,0,137.36c0,2.14.66,2.66,2.7,2.65q31.8-.17,63.61-.16c.61,0,1.21.09,1.69.13l-10.3,27.44c-2.25-1.8-3.67-.56-5,.95-.59.68-1.1,1.44-1.64,2.16-5.7,7.58-11.06,15.45-17.21,22.65-4.06,4.77-9.19,8.66-14,12.8a13.85,13.85,0,0,1-4.39,2.3c-2.51.9-4-.17-4-2.8a35.26,35.26,0,0,1,.34-5.63q.93-6,2.15-12a10.08,10.08,0,0,1,6.18-7.74,37.43,37.43,0,0,0,8.55-5.44c4.5-3.72,9.69-6.86,12.66-12.1a16.68,16.68,0,0,0,2.39-7.79c0-8.46-5.72-11.77-12.67-12.6-7.42-.88-12.88,2.87-17.45,8.2a60.32,60.32,0,0,0-12.55,22.07c-2.2,7.47-3.16,15.3-4.56,23-1.71,9.35,3.48,16,10.62,19.79,4.92,2.64,9.89,2.79,14.54-.49a36,36,0,0,0,6.94-6.07c3.53-4.21,6.58-8.81,10-13.14,3.77-4.8,7.7-9.48,11.53-14.23,1.62-2,3.2-4.05,4.79-6.08a22.87,22.87,0,0,1,.16,5.81,9.84,9.84,0,0,0,4.49,9.3,7.43,7.43,0,0,0,3.76,1.1c3.1.1,5.09-2,6.51-4.32A72.77,72.77,0,0,0,811,183c2.51-5.44,6.67-9.59,11.1-13.69-2.84,6-2.82,12.56-3.61,19-.67,5.41.46,10,5.2,13.28,3.73,2.58,7.42,5.33,12.18,2.55a37.2,37.2,0,0,0,6.44-4.51c6.91-6.41,11.06-14.92,16.6-22.38a1.8,1.8,0,0,0,.29-.61,23.35,23.35,0,0,0,.67-3.94,2.21,2.21,0,0,0-1.11-1.73,2.45,2.45,0,0,0-1.92.71c-5,4.56-9.93,9.24-15,13.76-2.81,2.51-5.78,4.84-8.77,7.13a16.06,16.06,0,0,1-3.28,1.5l-.73-.67c.93-4.54,1.57-9.17,2.88-13.6,1.79-6,5.4-11,9.6-15.67a13.19,13.19,0,0,0,3.78-7.79c.35-4-2.16-9.21-5.4-10.75-2.87-1.36-6.71-.45-9.45,3-6.89,8.67-13.53,17.54-20.27,26.33l-2.67,3.46-.74-.33c.71-3.59.91-7.38,2.26-10.71a99.62,99.62,0,0,1,7.31-14.19c3.38-5.57,2.38-8-1.75-10.09-.15-.08-.23-.32-.47-.65.67-.08,1.17-.12,1.67-.19,8.48-1.16,16.8-3,24.54-6.71,2.91-1.39,5.62-1.41,8.71-1.2,5.76.41,11.56.29,17.35.21,3.79-.06,7.58-.43,12-.7l-3.15,8.65c-3.13,8.57-6.06,17.22-9.58,25.66a99.56,99.56,0,0,0-6.09,18.41c-2.22,11.13-6,21.95-6.63,33.42-.23,3.81-.11,7.37,1.51,10.75,3,6.28,10.17,9,16.25,5.74a24.63,24.63,0,0,0,7.45-6.34c8.43-10.58,17.37-20.76,23.94-32.76,3.27-6,7.75-11.29,11.53-17a15.61,15.61,0,0,0,2.24-5.34,3.68,3.68,0,0,0-1.43-2.92c-.45-.33-1.87.39-2.71.87a6.1,6.1,0,0,0-1.47,1.7c-4.26,5.66-8.39,11.42-12.77,17-7.92,10.08-15.44,20.5-24.76,29.4a3,3,0,0,0-.92,1.25c-.41,1.89-1.77,1.91-3.58,2a26.78,26.78,0,0,1,0-4.58c1.32-7.25,2.44-14.56,4.26-21.69a205.07,205.07,0,0,1,7.2-23.3c4.77-12.33,10.15-24.43,15.37-36.59a31.34,31.34,0,0,1,2.91-4.53l.94.27c.14,2.2.46,4.42.38,6.62s.69,2.64,2.74,2.64c19.32-.08,38.63,0,57.95-.06,13,0,25.9-1.24,38.22-6,17.11-6.58,28.3-18.67,33.86-36.08a94,94,0,0,0,4.06-28.1C1036.28,61,1035,49.35,1030.61,38.21ZM770.71,151.37c.56,1.09,1.28,1.86,1.28,2.63,0,3.47.53,7.14-2.13,10s-5.55,5.92-8.44,8.76a18.48,18.48,0,0,1-3.3,2.09l-.51-.51C760.45,166,763.78,157.93,770.71,151.37ZM826.12,91c-2.11,8.37-7.67,13.94-16.26,16.28-8.09,2.2-16.33,1.37-24.53,1.56-1.69,0-1.44-1.16-1.44-2.19q0-11.09,0-22.17V71.79c0-11.54,0-23.07,0-34.61,0-2,.62-2.61,2.58-2.54,5.43.18,10.88-.06,16.29.31,14,1,21.91,7.58,24.2,21.43C828.81,67.86,829,79.59,826.12,91Zm161.4.15c-2,7.91-7.2,13.4-15.27,15.86-6.62,2-13.4,1.88-20.18,1.81-2.16,0-5,.54-6.26-.59-1.08-1-.42-4-.42-6.06q0-7.64,0-15.26V71.62q0-7.92,0-15.83,0-9.27,0-18.55c0-1.93.45-2.68,2.51-2.6,5.72.21,11.48-.06,17.18.39,13.19,1,21.12,7.86,23.27,20.86C990.22,67.6,990.45,79.53,987.52,91.13Z"/><path class="cls-1" d="M734.72,172a24.72,24.72,0,0,0-3.6,3.41c-3.14,3.66-6.15,7.44-9.28,11.12-4,4.65-7.94,9.29-12,13.83-1.07,1.19-2.59,2-4.38,3.31a13.53,13.53,0,0,1-.34-3c.57-3.23.88-6.58,2-9.65,2.88-8.08,6.36-16,9.11-24.08a19.6,19.6,0,0,0-.58-13.75c-1.54-3.78-4.49-5.12-8.41-4a17.77,17.77,0,0,0-8.9,5.93c-3.11,3.79-6.13,7.65-9.2,11.47-.49.61-1.05,1.16-1.58,1.74l-.61-.35c1.2-3.05,2.31-6.14,3.62-9.14,1.43-3.26,2.47-6.55,1.2-10.06-.65-1.81-1.64-3.49-2.59-5.48.92-.08,1.79-.21,2.66-.23q5.21-.08,10.41-.1c3,0,3,0,3-2.94V33.91c0-10.41,0-20.82,0-31.23,0-1.78-.5-2.62-2.43-2.61q-20.49.06-41,0c-1.85,0-2.49.73-2.49,2.58q0,69,0,138c0,1.82.57,2.37,2.33,2.33,4.38-.09,8.76,0,13.13,0,.72,0,1.45.07,2.45.12-9.78,12.72-18.28,25.88-24.75,40.3.24-4,3.16-11.49,5-14.88,1-1.83,2.23-4.44,1.63-6.06-1.25-3.38-3.39-6.6-7-8.18a2.64,2.64,0,0,0-2.49.63,56.92,56.92,0,0,0-4,7.33c-1.38,3.05-2.49,6.22-3.82,9.59-1.43-1.75-2.36-1-3.53,0q-11.55,10.32-23.24,20.48a18.76,18.76,0,0,1-3.26,1.81c-.08-.83-.15-1.19-.14-1.56a39.64,39.64,0,0,1,7.86-23.57c1.73-2.37,3.75-4.54,5.46-6.92a11.73,11.73,0,0,0-1.07-15,6.12,6.12,0,0,0-7.41-1.64,11.07,11.07,0,0,0-4,2.8c-6.89,8.77-13.64,17.65-20.43,26.49-.79,1-1.59,2-2.39,3.05l-.65-.32a66,66,0,0,1,1-7.06,53.1,53.1,0,0,1,8.68-18c.68-.95,1.51-2.2,1.4-3.22a38.36,38.36,0,0,0-1.68-6.25h37l-31.7-59.66,3.84-1.78a39.15,39.15,0,0,0,20.56-21.5,43.07,43.07,0,0,0,1.87-26.64A40,40,0,0,0,612.84,8.37C603.25,2,592.39.29,581.32.18,553.86-.09,526.38.09,498.91.09c-2.94,0-3.08.15-3.08,3.07q0,68.57-.05,137.14c0,2.28.77,2.74,2.86,2.73q20.15-.12,40.3,0c2.2,0,2.79-.64,2.78-2.81-.09-15.39-.05-30.78-.05-46.17,0-3,0-3,3.12-3,3.78,0,7.56.11,11.32,0a3.48,3.48,0,0,1,3.78,2.34c7.38,15.34,14.9,30.63,22.3,46,1.1,2.28,2.11,4.31,5.15,3.82.06,0,.14.18.14.18-.59,2-1,3.89-1.73,5.71-2.32,6.2-4.75,12.37-7.09,18.57-.55,1.46-.94,2.84-3,2.54a2.58,2.58,0,0,0-1.93,1c-2.69,3.44-5.75,6.72-7.7,10.55a16.79,16.79,0,0,1-4.32,5.47c-2.26,1.89-4.56,3.73-6.95,5.45a19.7,19.7,0,0,1-4,2.07c-1.17.48-2-.07-1.9-1.36.21-2.31.15-4.78,1-6.88,2.33-5.94,4.94-11.78,7.65-17.56,1.87-4,1.23-6.38-2.73-8.18a19,19,0,0,0-2.55-.94c-5.5-1.68-9.05,0-11.16,5.37-.77,2-1.44,3.95-2.24,6.16-1.72-1.41-2.77-.19-3.77.93a22.66,22.66,0,0,0-1.85,2.57c-4.91,7.33-9.68,14.76-14.77,22a101.31,101.31,0,0,1-8.11,9.38c-.44.47-1.34.52-2,.77-.22-.68-.72-1.4-.62-2,1.05-7.37,1.83-14.81,3.46-22.05,1-4.27,3.32-8.22,5.08-12.3a9.44,9.44,0,0,0-.41-8.69c-2.75-4.8-7.26-5.77-11.95-2.75-1.93,1.24-3.67,2.78-5.68,4.33a24.76,24.76,0,0,0-1-2.4c-1.45-2.62-2.65-5.46-4.5-7.77-2.77-3.44-7.25-4.7-10.8-2.77-4.32,2.35-8.91,4.61-11.92,8.75-7.4,10.19-12.17,21.47-13.42,34.09-.5,5-.11,10,3,14.28,1,1.33,2.4,2.87,3.87,3.21a14.19,14.19,0,0,0,13.39-3.38,65.27,65.27,0,0,0,13.6-17.09,45.64,45.64,0,0,1,2.66-4,69.3,69.3,0,0,1-.9,9.3c-.81,6.21-.13,12.22,3,17.75,2.53,4.48,6.81,6.93,11,5.74a20.38,20.38,0,0,0,8.32-4.24,51.91,51.91,0,0,0,12.36-17c2.49-5.72,5.5-11.22,8.3-16.8.31-.63.73-1.2,1.21-2,0,1.55.44,3-.08,4-2,3.71-1,7,1,10.16a36.33,36.33,0,0,0,4.63,6.14c6,6,12.34,7.05,18.87,1.09a25.53,25.53,0,0,0,6-8.8c1.84-4.16,5.12-7.68,7.77-11.48a8.43,8.43,0,0,1,.17,3.21,10.25,10.25,0,0,0,4.84,10,7.61,7.61,0,0,0,4,.84c3.35,0,5.25-2.4,6.7-4.91,1.34-2.32,1.74-5.2,3.21-7.4,3.21-4.78,6.83-9.28,10.28-13.89l.77.4c-3.34,6.35-3.48,13.31-4.22,20.16-.56,5.28.57,9.74,5.19,12.84,3,2,5.86,4.67,9.84,3.48a20,20,0,0,0,9.7-6c2.12-2.45,4.19-4.95,6.17-7.52,1.51-2,2.9-4,4.24-6.12,1.11-1.74,2.07-3.59,3.1-5.39a68.37,68.37,0,0,1,.52,11.12c-.18,6.22,3.56,9.57,8.49,11.46a4,4,0,0,0,3.47-.58,14.66,14.66,0,0,0,3.31-4.77c1.24-2.88,1.72-6.11,3.11-8.9,4.5-9,9.06-18.05,14-26.85,2.12-3.79,5.24-7,7.9-10.51l.69.37a11.12,11.12,0,0,1-.38,2.33c-2,5-4.08,10-6,15.13a86.61,86.61,0,0,0-2.87,9.46c-.56,2.32-.55,4.78-1.07,7.11a8.23,8.23,0,0,0,2.48,8.23c2.43,2.36,4.19,2.57,6.72.37a21.21,21.21,0,0,0,4.37-5,71.34,71.34,0,0,0,3.31-7.59,17.65,17.65,0,0,1,1.78-3.65c4-5.25,8.11-10.41,12.19-15.61-1.91,4.19-2.36,8.76-4.48,12.91a40.7,40.7,0,0,0-4,24c.53,4.22,1.45,8,4.51,11.26s7.89,5,11.61,3a30.18,30.18,0,0,0,8.58-6.07,137.49,137.49,0,0,0,18.95-28,15.86,15.86,0,0,0,1.32-6.08C737.23,171.47,736.06,170.94,734.72,172ZM579.3,56.53a15.89,15.89,0,0,1-7.77,2.57c-9.27.31-18.56.1-27.84.16-1.59,0-2.06-.54-2.05-2.1q.11-11,0-21.95c0-1.88.75-2.3,2.43-2.27,4.67.08,9.35,0,14,0V33c4.83,0,9.67-.18,14.48.05a12.33,12.33,0,0,1,11.51,9C585.7,47.55,584,53.48,579.3,56.53Zm-88,118.15c-5,6.67-9.87,13.48-14.87,20.17a36,36,0,0,1-3.71,3.7l-.74-.45a31.36,31.36,0,0,1,0-4,68.37,68.37,0,0,1,6.37-20.8c1.51-3.19,3-6.4,4.82-9.44a38,38,0,0,1,4.29-5.47,1.84,1.84,0,0,1,1.67-.48,3.28,3.28,0,0,1,1.52,1.79c.64,2.65.87,5.43,1.67,8A7.09,7.09,0,0,1,491.26,174.68Z"/><path class="cls-1" d="M470.65,92.73a28.35,28.35,0,0,0-16.71-20.09c-2.85-1.26-5.8-2.28-9.32-3.65,1.53-.66,2.5-1.12,3.5-1.5,10.61-4,17.46-11.24,19.73-22.51,2.95-14.66-.67-27.07-12.72-36.45C447,2.16,437.22.25,427.24.17,397.36,0,367.48.09,337.6.09c-3.22,0-3.26.05-3.26,3.33V139.86c0,3.12,0,3.13,3.05,3.13h78.53c-.74,2.17-1.3,3.79-1.85,5.41-1.84,5.4-3.55,10.84-5.55,16.17-2.34,6.25-5.45,12.26-7.29,18.64-2.38,8.23-3.87,16.73-5.7,25.12-1.28,5.87-2.41,11.79-1.55,17.84s4.66,10,10.43,11.5c5.29,1.41,9.47-1.37,12.64-5.23,9.07-11,18.44-21.79,25.48-34.37,3.48-6.21,8.07-11.8,12-17.78a17.36,17.36,0,0,0,2.3-5.55A3.46,3.46,0,0,0,455.4,172c-.47-.34-1.79.24-2.56.7a6.5,6.5,0,0,0-1.64,1.84c-4.49,6-8.85,12-13.46,17.89-7.69,9.77-15,19.88-24.06,28.5a2.78,2.78,0,0,0-.93,1.25c-.39,1.9-1.79,1.9-3.56,2a27.57,27.57,0,0,1,0-5c1.48-7.75,2.58-15.63,4.79-23.18,3.31-11.25,7.23-22.34,11.3-33.35,2.18-5.9,5.35-11.43,7.78-17.25a3.69,3.69,0,0,1,2.95-2.5,130,130,0,0,0,14.86-4.52c9.27-3.79,15.51-10.69,18.95-20.11C473,109.87,472.74,101.28,470.65,92.73ZM380.17,34c0-1.77.46-2.39,2.28-2.35,5,.11,9.95,0,14.92,0,4.6,0,9.2-.05,13.8,0,6.74.09,11.1,4.47,11.18,11.22a20.5,20.5,0,0,1-.32,4.5c-1,5-4.46,8-9.58,8.36-2.1.16-4.22.1-6.33.1-7.76,0-15.53-.07-23.29.05-2.13,0-2.7-.68-2.67-2.73C380.28,46.83,380.26,40.42,380.17,34Zm44.94,68.12c-1,4.83-4.84,7.57-10.3,7.77H398.74c-5.43,0-10.86,0-16.29,0-1.63,0-2.29-.47-2.27-2.19q.1-10.19,0-20.36c0-1.56.53-2.13,2.11-2.12,10.86,0,21.72,0,32.59.06,5.85,0,10,3.78,10.59,9.65A23.27,23.27,0,0,1,425.11,102.14Z"/><path class="cls-1" d="M181.56,93.14c-.39.91-.53,2.24-1.22,2.65A26.43,26.43,0,0,1,175,98c-3,1-6,1.85-9,2.59-6,1.47-12,2.83-18,4.23-.15,0-.3,0-.45,0-4.39.61-5,1.17-5.09,5.53q-.16,14.92,0,29.87c0,2.2-.62,2.81-2.8,2.78-6.94-.11-13.88-.07-20.82,0-4.45.08-4.46.18-5.88,4.31-1.06,3.1-2.08,6.22-3.3,9.9,1.93,0,3.25.1,4.55,0,8.87-.82,17.72-1.69,26.58-2.54h.23c1-.19,2.54-1.22,2.77.45.12.91-1.27,2-2,3-.16.2-.55.24-.84.31l-22.24,5.33c-3.44.82-7,1.26-10.24,2.63a8.72,8.72,0,0,0-4,4.76c-3.22,8.93-6.07,18-9.13,27-2.17,6.35-4.56,12.62-6.66,19-.51,1.54-.3,3.32-.41,5,1.51-.32,3.19-.32,4.51-1,8.57-4.44,17.06-9,25.56-13.58,2.39-1.28,4.7-2.73,7.15-3.89.83-.39,2.35-.55,2.85-.08s.56,2,.25,2.86c-1.47,4-3.37,7.69-6.89,10.4-5,3.81-9.55,8.11-14.69,11.63-5.4,3.69-11.17,7-18,7.28-8,.38-17.32-6.25-19-13.42A12.63,12.63,0,0,1,71,214.09c1.89-4.23,3.4-8.63,5.06-13,2-5.28,4.09-10.54,6-15.86,1.71-4.82,3.19-9.71,4.79-14.65a34.5,34.5,0,0,1-4.08-2.14c-1.67-1.17-3.54-2.57-2.94-4.89s2.87-2.65,4.93-2.92c1.86-.23,3.74-.36,5.6-.59S93,158.65,93.51,157c1.23-4,2.49-8,3.7-12.09a3.75,3.75,0,0,0,.05-1.7,16.58,16.58,0,0,1-.79-2.84c-.07-9,0-18-.12-26.93A6.59,6.59,0,0,0,95.17,110a5.63,5.63,0,0,1,.47-7.55,3,3,0,0,0,.76-1.75c.07-3.39,0-6.79.06-10.18,0-1.32-.52-1.69-1.74-1.69q-23.55,0-47.09,0c-2,0-1.67,1.27-1.67,2.45V139.7C46,143,46,143,42.61,143c-13.28,0-26.57-.05-39.85,0-2.23,0-2.76-.71-2.76-2.84Q.09,71.74.05,3.29C.05.21.16.1,3.22.09h39.4C45.88.09,46,.18,46,3.36c0,15.38,0,30.77,0,46.16,0,2.21.45,3,2.85,3q22.53-.18,45.06,0c2.1,0,2.66-.62,2.65-2.69-.08-15.54,0-31.08,0-46.62,0-3,0-3.07,3-3.07h39.62c3.2,0,3.22,0,3.22,3.35V96.23c2.68-.28,5-.54,7.28-.77l27.92-2.75a5.86,5.86,0,0,1,1.33-.22C179.75,92.63,180.65,92.92,181.56,93.14Z"/><path class="cls-1" d="M235.31,143H229c-3.77,0-7.54,0-11.32,0-1.4,0-2.06-.34-2-1.89,0-1.88.5-4.3-.46-5.48s-3.4-.84-5.2-1.16-3.73-.58-5.57-1a9.54,9.54,0,0,1-2-1l0-.88c2.46-.7,4.93-1.42,7.4-2.1a11.41,11.41,0,0,1,1.57-.23c4.33-.56,4.33-.56,4.34-5.06,0-11.47,0-22.93-.05-34.4a7.82,7.82,0,0,0-1.21-3.95q-26.82-41.52-53.74-83a12.18,12.18,0,0,1-.92-2.36,12.89,12.89,0,0,1,2.35-.42c15.62,0,31.24,0,46.86,0a4,4,0,0,1,3.94,2.32q12.45,21.67,25,43.27c.41.7.87,1.37,1.52,2.41.71-1,1.28-1.64,1.7-2.37q12.48-21.51,24.91-43.07A4.47,4.47,0,0,1,270.55.05c14.63.09,29.27,0,43.91.07a11.27,11.27,0,0,1,2.32.48,13.2,13.2,0,0,1-.92,2.18Q289.33,44.35,262.78,85.9a7.79,7.79,0,0,0-1,4.33c1.79-1.12,3.46-2.75,5.42-3.25a22.36,22.36,0,0,1,8.22-.57c6.84.89,6.82,4.24,4.6,9.2C279,98,277,99.88,275.53,102.07c-4.28,6.46-8.58,12.91-12.65,19.5-.83,1.35-.71,3.28-1.12,5.43,2.19,0,3.9.07,5.6,0q6.76-.35,13.53-.83c1.66-.12,2.48.92,1.74,2.59a5.81,5.81,0,0,1-5.82,3.58,20.54,20.54,0,0,0-7.69.86c-2.1.69-4.61.14-7.52.14,0,2.72,0,5.33,0,7.94,0,1.23-.39,1.7-1.67,1.78-8.09.47-6.26-.33-9.67,6.91A257.6,257.6,0,0,0,236.47,185c-2.05,6.76-4,13.58-5.53,20.46-1.21,5.34-1.86,10.81-2.63,16.24-.11.78.46,2.32.88,2.38,1.23.19,2.57-.09,2.92-1.77a2.72,2.72,0,0,1,.87-1.28c9-8.57,16.28-18.61,23.93-28.32,4.66-5.92,9.07-12.05,13.59-18.07.41-.55.75-1.25,1.3-1.55a24.12,24.12,0,0,1,3.14-1.18c.42,1.19,1.45,2.58,1.14,3.54a26.51,26.51,0,0,1-3.26,6.35c-4.41,6.57-9.35,12.81-13.35,19.61-6.33,10.76-14.32,20.22-22.17,29.8a25.61,25.61,0,0,1-6.21,5.15c-5.76,3.63-14.3.11-16.85-6.93a22.54,22.54,0,0,1-1-9.74c1.05-12.7,4.73-24.84,7.61-37.13,1.46-6.2,4.74-12,7-18,2-5.33,3.71-10.77,5.55-16.17C234,146.8,234.56,145.18,235.31,143Z"/><path class="cls-1" d="M167.92,177.92c.75-.92,1.51-1.83,2.23-2.77,6.67-8.75,13.25-17.56,20-26.22,2.27-2.9,5.35-4.81,9.31-3.61,3,.91,5.27,5.22,5.83,9,.75,5.15-2.28,8.42-5.18,11.73a39.56,39.56,0,0,0-9.6,21c-.3,2.18-.69,4.36-1,6.54l.65.42a17.78,17.78,0,0,0,3.44-1.88c7.72-6.74,15.37-13.56,23.08-20.31.6-.53,1.72-1.17,2.23-.94a2.58,2.58,0,0,1,1.17,2.17,12.66,12.66,0,0,1-1.61,4.83c-4.08,6.11-8.17,12.22-12.65,18a28,28,0,0,1-7.64,6.91c-6.14,3.63-7.93,3.23-14.72-1.66-4.32-3.1-5.36-7.35-4.87-12.32.68-7,.8-14,4.06-20.5-5,5.36-10.66,10.18-12.52,17.67a12.71,12.71,0,0,1-5.71,7.59,5.64,5.64,0,0,1-6.4,0,10.19,10.19,0,0,1-4.68-9c.1-8,2.81-15.2,5.53-22.48,2.1-5.64,4.12-11.31,6.18-17a4.41,4.41,0,0,1,.62-1.2c1.9-2.42,7.13-2.5,10.46-.18,2.78,1.93,3.12,4.81,1.23,8.16a151.39,151.39,0,0,0-7.81,14.72c-1.45,3.36-1.74,7.22-2.56,10.85Z"/><path class="cls-1" d="M336.57,170.19c-1.55-1.37-2.81-.47-3.91.66a24.86,24.86,0,0,0-2.12,2.65c-5.69,7.58-11,15.47-17.19,22.65-4.23,4.93-9.57,8.9-14.51,13.2a11.68,11.68,0,0,1-3.6,1.84c-2.72,1-4.31.09-4-2.73.74-6.5,1.68-13,2.87-19.41.49-2.68,2.62-4.44,5.09-5.71a50.79,50.79,0,0,0,6.44-3.72,89.38,89.38,0,0,0,8.29-6.62,68.74,68.74,0,0,0,7.27-7.61c3.91-4.87,2.25-13.7-1.92-16.8a17.11,17.11,0,0,0-9-3.44c-7.63-.66-13,3.25-17.69,8.7-11.8,13.82-15.45,30.51-17,48.72.13,6.65,4.12,11.57,10.16,15.2,5.56,3.33,10.92,3.07,16.36-.48a29.66,29.66,0,0,0,8-7.73c6.18-8.53,12.86-16.71,19.3-25.05,2.58-3.34,5.06-6.76,7.59-10.14A2.75,2.75,0,0,0,336.57,170.19Zm-24.25-18.83a9.07,9.07,0,0,1,1,2.44c.18,3.64.71,7.41-2.16,10.41s-5.84,6-8.84,9a7,7,0,0,1-2.92,1.42C302.2,166.22,305.35,158.06,312.32,151.36Z"/><path class="cls-1" d="M356.65,177.84c-1.48,0-3,.08-4.43,0-3.37-.22-6.4-1.36-8.48-4.12a13.79,13.79,0,0,1,.21-16.28c3.44-4.63,6.57-5.74,12.12-4.27,2.1.55,3.1,1.9,2.58,4a27.36,27.36,0,0,1-2,5.45c-1,1.89-2.49,3.82-1.38,5.85s3.38,1.46,5.34,1.65a49.33,49.33,0,0,1,9.08,1.51c2.83.83,3.52,2.57,3.63,5.56.17,5-2.79,8.84-4.44,13.15-2.71,7-5.58,14-8.3,21a29.54,29.54,0,0,0-.92,4.52,19.9,19.9,0,0,0,2.79-1.24,31.43,31.43,0,0,0,8.65-8.37c5.34-7.58,11.2-14.79,16.83-22.16,3-3.9,5.84-7.88,8.92-11.69.74-.91,2.15-1.29,3.25-1.91.29,1.33,1.08,2.8.75,4a35.84,35.84,0,0,1-3.28,7.89c-5.29,9.18-10.32,18.65-17.6,26.4-6.35,6.75-12.92,13.5-21.58,17.55-3.74,1.75-8.68,0-11.14-3.84a17,17,0,0,1-2.52-13,72.22,72.22,0,0,1,3.78-10.75c2.67-6.63,5.49-13.2,8.24-19.81A3.82,3.82,0,0,0,356.65,177.84Z"/><path class="cls-1" d="M570.55,130.83a29.35,29.35,0,0,1-2,3.87,40.81,40.81,0,0,0-5.11,8.38c-2,4.85-6.16,7.87-11.05,9.73a2.37,2.37,0,0,1-1.89-.23c-2.29-1.55-2.62-6.27-.58-8.2,4.08-3.86,4.78-9.23,6.47-14.16a2.19,2.19,0,0,0-.13-1.55c-.51-1-1.71-1.53-.85-3.27a5.67,5.67,0,0,1,5.83-3.5A9.76,9.76,0,0,1,570.55,130.83Z"/><path class="cls-1" d="M945.38,55.79V71.62q0,7.63,0,15.27V71.62Q945.37,63.7,945.38,55.79Z"/></g></g></svg>