<svg xmlns="http://www.w3.org/2000/svg" viewBox="0 0 1034.73 421.94"><defs><style>.cls-1{fill:#fff;}</style></defs><g id="Layer_2" data-name="Layer 2"><g id="Layer_1-2" data-name="Layer 1"><path class="cls-1" d="M531,55.71a23.24,23.24,0,0,0-8.83-8.85c-7.09-4-10.7-2.24-14,4-2.58,4.93-5.5,9.67-8.19,14.55-4.45,8.11-8.9,16.23-13.23,24.4-2.86,5.38-5.55,10.84-8.25,16.31q-4.39,8.9-8.64,17.87c-2,4.15-3.8,8.35-5.68,12.53-2.09,4.67-4.2,9.32-6.23,14S454,160,452,164.68c-2.05,5-4,10-6,15.08-1.58,4-3.1,8-4.77,11.94a3,3,0,0,1-1.79,1.52c-7.41,1.94-13.57,6.46-20.27,9.81s-13.43,7.11-19.93,11c-7,4.18-13.71,8.73-20.51,13.17-2.47,1.61-4.84,3.37-7.72,5.37a8.7,8.7,0,0,1-.08-2.19c1.62-4.62,3.31-9.21,4.94-13.82q3-8.52,5.92-17c1.36-4,2.81-8,3.89-12,.89-3.37,2.07-6.94,1.76-10.29-.49-5.34-4.14-9.29-8.17-12.59-5-4.13-8.65-4-13.39.41-12.41,11.67-24.76,23.42-38.45,33.62-8.2,6.12-16.42,12.23-24.81,18.1-5.42,3.8-11,7.34-16.78,10.64-4.88,2.81-10,5.13-15.12,7.56a2.71,2.71,0,0,1-2.28-.16,2.25,2.25,0,0,1-.43-2,75.85,75.85,0,0,1,2.65-7.92,103.48,103.48,0,0,1,13-23.16c2.41-3.15,4.07-6.55,2-10.65a23.92,23.92,0,0,0-10.77-11.18c-4.31-2.19-7.23-1.86-10,2.18-3.83,5.66-7.52,11.43-10.95,17.33a53.46,53.46,0,0,0-4.82,10.69,168.25,168.25,0,0,0-5.93,25.71c-1.11,7.32,3.85,13.66,8.74,16.44,6.29,3.57,13.13,4.93,20.36,5a47,47,0,0,0,18-3.58A140.33,140.33,0,0,0,307.5,245c5.86-3.39,11.52-7.15,17.06-11,7.16-5,14.12-10.3,21.2-15.42a5.54,5.54,0,0,1,2-.49,5.89,5.89,0,0,1,0,2.13c-1.52,3.93-3.11,7.84-4.73,11.72-2.82,6.73-5.65,13.45-8.54,20.14-2.67,6.22-5.32,12.45-8.19,18.57a26.2,26.2,0,0,1-4.5,7.19c-15.91,16.2-31.79,32.39-46.22,50a262.93,262.93,0,0,0-17.3,23.43,93.51,93.51,0,0,0-10.83,22.49c-2.6,8.14-4,16.43-3,24.95A35.67,35.67,0,0,0,247,409.37c2.13,4.62,5.92,8.16,10.15,11,3.66,2.47,7.56,1.93,9.92-1.23,3.42-4.59,6.81-9.2,10.09-13.9,5.91-8.46,11.82-16.92,17.55-25.49,5.19-7.76,10.37-15.54,15.15-23.55,6.22-10.4,12.15-21,18-31.58,4-7.25,7.51-14.75,11.42-22,2.12-3.95,3.7-8.2,7.19-11.38,8.93-8.12,17.61-16.5,26.57-24.59,7.15-6.47,14.36-12.91,21.91-18.91,10.19-8.11,20.71-15.8,31.15-23.61a8.71,8.71,0,0,1,2.85-.85,10.7,10.7,0,0,1,.12,3.13c-.63,2.31-1.55,4.54-2.31,6.82-1,3.07-2.05,6.13-3,9.22-1.54,5-3.42,9.86-4.36,14.93a12.14,12.14,0,0,0,1.59,7.7,22.9,22.9,0,0,0,11.53,9.73c3.7,1.47,6.64.36,8.53-3.15q7.2-13.42,14.56-26.75c.29-.53.95-.84,1.45-1.25a11.11,11.11,0,0,1,1.17,1.49c1.64,3,2.89,6.32,4.91,9.05,2.79,3.76,6.17,7.2,11.23,7.67a34,34,0,0,0,21.91-5.7c10.92-7,17.24-17.56,20.88-29.64A121.9,121.9,0,0,0,521,206.8c1.18-9.26-.18-18.15-5.61-26.11-5.17-7.56-16.43-13.78-25.94-9.95a43.77,43.77,0,0,0-11.81,6.86,7.82,7.82,0,0,1-2.36.89c-.08-.9-.22-1.8-.21-2.7,0-.34.35-.65.51-1q3.15-7.11,6.3-14.22c2-4.54,4-9.09,6.07-13.59q4-8.7,8.17-17.34c2.67-5.56,5.37-11.1,8.15-16.6s5.51-10.69,8.37-16c3.58-6.62,7.24-13.19,10.91-19.76,2.57-4.59,5.38-9.07,7.78-13.75A8,8,0,0,0,531,55.71ZM492.19,201.3a25.45,25.45,0,0,1,3.47-2.89c.42-.3,1.32-.53,1.6-.3a2.11,2.11,0,0,1,.71,1.71c-.69,3.93-1.07,8-2.39,11.73a75,75,0,0,1-6.36,13.65c-5.5,9.05-13.55,14.34-24.4,14.79-.91,0-1.81.17-3.17.31-.28-.12-1.46-.39-1.47-.67a4.7,4.7,0,0,1,.72-2.7c3.32-4.39,6.52-8.89,10.18-13C478,216.27,485.11,208.81,492.19,201.3Z"/><path class="cls-1" d="M287.42,17c-1.41,3.24-2.78,6.53-4.27,9.77-2,4.3-4,8.56-6.07,12.84q-2.91,6.1-5.81,12.22c-2,4.22-4.06,8.4-6,12.64-2.19,4.78-4.3,9.6-6.38,14.44-2.75,6.42-5.4,12.89-8.15,19.32-1.88,4.43-3.89,8.8-5.75,13.24a3.72,3.72,0,0,0-.17,2.71c.22.45,1.58.6,2.38.5q24.06-2.75,48.09-5.59a11.59,11.59,0,0,0,1.58-.15c10.27-2.63,16.85,5.25,20.18,12.27,2.14,4.52-.33,8.59-5.33,9.17-15.5,1.81-31,3.46-46.52,5.36-9.73,1.19-19.42,2.72-29.13,4.1a4.7,4.7,0,0,0-4,3.51c-2.13,5.94-4.45,11.82-6.61,17.75-2,5.37-3.79,10.78-5.68,16.17l-5.94,16.8c-1,2.84-2,5.67-3,8.54-3.18,10-6.39,19.91-9.43,29.91-2,6.63-3.74,13.34-5.62,20-.79,2.83-1.57,5.66-2.53,8.43-1.28,3.73-5.7,4.73-9.76,2.31A27.76,27.76,0,0,1,173.27,253c-2.19-3.93-1.43-8-.19-12.08,2.24-7.33,4.45-14.68,6.72-22,2-6.4,4-12.77,6.06-19.15,1.9-5.95,3.77-11.9,5.76-17.81s4-11.49,6.07-17.24c1-2.76,1.93-5.54,2.89-8.31s1.86-5.25,2.69-7.9c1-3.05.2-4.06-2.93-3.58-6.7,1-13.39,2.2-20.07,3.35q-10.92,1.88-21.83,3.83c-5.2.91-10.4,1.79-15.58,2.78-6.07,1.17-12.11,2.48-18.18,3.66-2.07.4-4.24.4-6.24,1a5.62,5.62,0,0,0-3.26,2.28A105.7,105.7,0,0,0,110.81,172c-3.09,8-6.16,16-9.11,24-2,5.51-3.82,11.09-5.76,16.63-1.86,5.32-3.8,10.62-5.66,15.94-1.24,3.55-2.41,7.12-3.6,10.69-1.29,3.85-2.59,7.7-3.85,11.56q-1.72,5.25-3.37,10.52c-1.25,4-2.47,7.9-3.69,11.85-1.1,3.52-2.18,7.05-3.27,10.57-.56,1.79-1,3.62-1.68,5.38-1,2.54-1.09,4.88.51,7.31s1.38,5.1.42,7.64a64.34,64.34,0,0,1-11,19.32c-2.59,3-6,3.88-9.46,1.86a25.28,25.28,0,0,1-11.41-14.36,9.71,9.71,0,0,1,0-4.67c.52-2.58,1.34-5.1,2.08-7.62,3.13-10.61,6.18-21.25,9.45-31.81,2.68-8.7,5.64-17.31,8.46-26,2.71-8.29,5.3-16.62,8.12-24.87,2.68-7.83,5.59-15.57,8.38-23.36,2.69-7.5,5.39-15,8-22.54.28-.81.35-2.2-.12-2.63a3.63,3.63,0,0,0-2.74-.28c-10,2.19-20,4.38-30,6.74-8,1.88-15.92,4-23.88,6a84.75,84.75,0,0,1-9.29,2c-3.92.52-7.23-1.19-10.11-3.69C4.6,175,1.36,171.45.2,166.48c-.57-2.43.06-4.07,2.28-5.3a11.35,11.35,0,0,1,2.87-1.29c4.63-1.06,9.28-2,13.91-3,4.92-1.11,9.82-2.32,14.74-3.46,5.35-1.24,10.71-2.48,16.08-3.65,4.86-1.06,9.75-2,14.61-3,9.65-2.07,19.3-4.14,28.92-6.35a4.84,4.84,0,0,0,3-2.26c2.46-5.4,4.64-10.92,6.94-16.4,2-4.71,4-9.4,6-14.12s3.75-9.19,5.69-13.76,4-9.25,6-13.85c1.9-4.26,3.88-8.47,5.82-12.71l6.3-13.75c1.84-4,3.68-8.07,5.55-12.09.91-2,1.79-4,2.88-5.87,1.52-2.65,5.58-3.32,8.91-1.62a24,24,0,0,1,11.05,10.92,8.69,8.69,0,0,1,0,8c-3,6.41-5.82,12.88-8.78,19.3-2.74,5.95-5.6,11.83-8.31,17.78-2,4.31-3.77,8.69-5.65,13.05-2,4.62-4,9.25-6,13.87s-4,8.91-5.93,13.41c-.85,2,0,3,2.17,2.91a29.42,29.42,0,0,0,3.36-.44c11.35-2,22.69-4.19,34.06-6.12,7.13-1.22,14.32-2.07,21.48-3.16,7.6-1.16,15.19-2.41,22.78-3.61,2.48-.39,3.84-1.66,4.7-4.17,1.69-4.9,3.88-9.62,5.83-14.43s3.71-9.36,5.62-14,3.82-9.16,5.77-13.71,3.95-9.11,6-13.63c2.12-4.74,4.32-9.44,6.47-14.16,1.84-4,3.61-8.11,5.5-12.12,2.83-6,5.73-11.93,8.62-17.88C261.24,12,262.89,8.19,265,4.66c1.06-1.77,2.94-3.08,4.6-4.41a2.45,2.45,0,0,1,2.18,0c5.34,2.78,10.7,5.6,13.52,11.36C286.08,13.2,286.6,14.9,287.42,17Z"/><path class="cls-1" d="M899.41,21.34a29.14,29.14,0,0,0-9.75-8.17c-4.48-2.48-8-.2-10,3.62s-3.84,7.66-5.82,11.46q-5.36,10.32-10.78,20.59c-3.51,6.66-7,13.33-10.61,19.92Q846,80.55,839.34,92.2c-5.05,8.82-10,17.69-15.37,26.32-5.79,9.33-11.78,18.57-18.08,27.56C797.11,158.6,788,170.86,779,183.21c-1.26,1.74-2.63,2-4.23.61-4.7-4-10.32-5.77-16.23-6.9s-11.62.28-17,2.34c-7.69,2.94-13.64,8.45-19.27,14.29-3.5,3.63-6.49,8-10.56,10.81-8.77,6.06-18,11.5-27.21,16.88a171,171,0,0,1-17.09,8.65c-5.21,2.3-10.65,4.11-16.06,5.89-2.59.85-3.55-.29-2.66-2.93.55-1.63,1.46-3.14,2.13-4.73,1.92-4.57,3.56-9.28,5.77-13.71,3.12-6.26,6.63-12.33,10-18.46a7.82,7.82,0,0,0,.16-8,22.2,22.2,0,0,0-4.35-6,35.68,35.68,0,0,0-8.25-5.37c-3.82-1.77-7.1-.08-9.79,4.89Q636.44,196,628.91,210.6a49.76,49.76,0,0,0-5,18.86c-1.2,14.68,7.42,27.44,21.63,31.2a21.9,21.9,0,0,0,10.67-.1,80.9,80.9,0,0,0,15.1-5.81c5.32-2.61,10.28-5.94,15.46-8.84,2.5-1.39,4.35-4,8.11-4.07-.23,1.15-.34,2-.58,2.86-2.68,9.12.65,15.34,7.86,20.8,2.35,1.79,5.35,3.2,8.49,2.23a71.75,71.75,0,0,0,11.82-4.44c8.07-4.17,16.25-8.28,23.78-13.31,8.37-5.59,16.2-12,24-18.41,4.07-3.33,7.53-7.39,11.34-11a10,10,0,0,1,2.46-1.28c.07,1,.44,2,.15,2.89-1,2.92-2.22,5.74-3.33,8.62-2,5.19-4,10.37-6,15.58-2.14,5.78-4.14,11.62-6.3,17.39-1.54,4.14-2.7,8.34-.4,12.46a26.36,26.36,0,0,0,10.25,9.89c5.08,2.95,9.06,1.63,10.94-4.85,1.46-5.05,3.46-9.94,5.26-14.88q3-8.37,6.17-16.72c1.87-5,3.75-10,5.71-15s4-10,6.09-15,4.15-10,6.24-15q2.85-6.75,5.73-13.49c1.93-4.49,3.85-9,5.83-13.46q3.11-7,6.33-14c2-4.37,4.06-8.72,6.11-13.07,1.86-4,3.75-7.87,5.61-11.81s3.85-8.17,5.79-12.24q4.38-9.16,8.78-18.31c1.85-3.86,3.67-7.74,5.55-11.59q3.07-6.28,6.22-12.52,4.14-8.28,8.32-16.52,4-8.05,8.13-16.11c2.94-5.84,5.72-11.76,8.85-17.5C902.81,29.06,902.8,25.92,899.41,21.34Zm-135.26,179c-9.69,10.59-20,20.44-32,28.5a2.74,2.74,0,0,1-.77.48,15.09,15.09,0,0,1-1.68.26c0-.62-.25-1.41,0-1.85a77.72,77.72,0,0,1,5.11-7.44c5-6.12,10.13-12.22,16.71-16.73A83,83,0,0,1,762.09,198c1.06-.52,2.37-.71,2.92,1.05A10.84,10.84,0,0,1,764.15,200.36Z"/><path class="cls-1" d="M1033,22.55A27.43,27.43,0,0,0,1022.1,13c-3.94-2-6.86-.66-8.79,2.29a106.44,106.44,0,0,0-5.07,9.57c-2.75,5.35-5.45,10.73-8.22,16.07s-5.56,10.66-8.41,16-5.68,10.44-8.55,15.64c-2.73,4.93-5.49,9.85-8.23,14.78s-5.3,9.79-8.14,14.58q-6.5,11-13.29,21.78c-4.33,6.87-8.71,13.74-13.32,20.42-5.86,8.49-12,16.82-18,25.17-3.45,4.75-7,9.4-10.57,14.09-1.21,1.61-2.34,1.93-4.09.42-5.79-5-12.86-6.64-20.1-7.34-5.14.47-10.13,1-14.52,3.57A87.91,87.91,0,0,0,861,187.86a90.1,90.1,0,0,0-21.61,26.46A142.53,142.53,0,0,0,831,232.74c-2.09,5.46-3.41,11.21-4.94,16.87a7.78,7.78,0,0,0,.21,3.34c1.12,5.47,4.39,9.58,8.84,12.66,2.59,1.8,5.61,3.14,9,2,3.69-1.31,7.51-2.39,11-4.18,8.07-4.19,16.34-8.17,23.79-13.31,9.45-6.52,18.26-14,27.17-21.28,3.31-2.71,6.1-6.05,9.19-9A6,6,0,0,1,917,219c.14.75.32,1.5.39,2.26,0,.27-.21.55-.32.84q-4.7,12.19-9.38,24.41-1.58,4.11-3.05,8.25c-1.71,4.82-3.44,9.64-5,14.5a6.18,6.18,0,0,0,0,3.54c2.22,7.13,7.31,11.61,14,14.41,2.85,1.2,5,.46,6.62-2.13a21.61,21.61,0,0,0,2.11-4.45c1.92-5.3,3.71-10.65,5.62-15.95q3.13-8.7,6.38-17.36c1.83-4.85,3.74-9.68,5.65-14.5q3-7.54,6.05-15.06c1.87-4.59,3.75-9.19,5.69-13.75,2-4.71,4.06-9.38,6.09-14.07,2-4.54,3.93-9.11,5.95-13.64s4.13-9.18,6.22-13.76c1.9-4.18,3.81-8.35,5.78-12.5,2.74-5.77,5.57-11.5,8.33-17.27s5.37-11.42,8.11-17.11,5.61-11.48,8.4-17.22,5.46-11.4,8.29-17c4.31-8.62,8.72-17.18,13.06-25.78q5.79-11.48,11.54-23A9.3,9.3,0,0,0,1033,22.55ZM896.75,200.47c-8.66,9.45-17.8,18.39-28.28,25.87-1.4,1-2.83,2-4.3,2.88a10.06,10.06,0,0,1-2,.74c-.2-.23-.41-.45-.62-.67a80.18,80.18,0,0,1,4.56-7.1c5.58-7,11.42-13.87,18.8-19.07,3.09-2.17,6.75-3.53,10.23-5.1.64-.29,1.63.18,2.46.31A6.72,6.72,0,0,1,896.75,200.47Z"/><path class="cls-1" d="M622.66,198.32c.37,4.12-5.18,7.05-8.81,5.49a12.92,12.92,0,0,1-4.46-2.6c-3.32-3.67-6.77-3.08-10.51-1a116.55,116.55,0,0,0-24.68,18.51,161.67,161.67,0,0,0-22.38,26.87,186.57,186.57,0,0,0-10.43,18.7c-2.63,5.33-7.27,5.83-11.39,3.11a44.13,44.13,0,0,1-7.73-6.8c-4.35-4.65-3.73-9.92-1.47-15.36s4.36-11.2,6.54-16.8c1.94-5,3.94-9.92,5.87-14.9,2-5.18,4-10.39,5.95-15.58,1.88-4.91,3.79-9.81,5.69-14.72.51-1.33,1-2.65,1.55-4,1.47-3.9,4.58-5.34,8.46-4,5.1,1.76,8.69,5.24,11.56,9.66,2,3,2,2.94,4.8,1,6.08-4.29,12.63-7.63,20-9,8.62-1.59,16,1.19,22.09,7.17,3.12,3.08,5.63,6.81,8.22,10.4C622.28,195.51,622.31,197,622.66,198.32Z"/><path class="cls-1" d="M925.19,341.22c0,6.63,0,13.27,0,19.9,0,1.86-.75,2.69-2.65,2.88a7.65,7.65,0,0,1-7.8-3.64c-6-8.57-12.34-16.91-18.61-25.29-.47-.63-1.42-.91-2.14-1.35-.39.75-1.1,1.5-1.1,2.25q-.06,12.11.12,24.2c0,3-.49,3.72-3.57,3.8-4,.1-4.71-.47-4.7-3.61q0-18.89,0-37.78c0-1.78-.35-3.75,1.82-4.68s5.89-.27,7.29,1.53c3.14,4,6.21,8.13,9.27,12.24,3.9,5.26,7.73,10.57,11.66,15.82a6.81,6.81,0,0,0,1.9,1.25,6.9,6.9,0,0,0,.87-2.17c.06-4.45,0-8.9,0-13.35,0-4.07-.05-8.14,0-12.21,0-2.78.76-3.44,3.53-3.45,3.14,0,4,.67,4,3.52,0,6.71,0,13.43,0,20.14Z"/><path class="cls-1" d="M598.36,328.42c-3.17-4.95-7.51-8.84-13.34-9.6-7.37-.95-14.86-.92-22.31-1.18-3.28-.12-4.1.86-4.1,4.2v19.23h0c0,6.48,0,13,0,19.45,0,2.7.55,3.39,3.26,3.42,4.45.06,8.9,0,13.35,0s8.68-.16,12.83-2c6.13-2.76,10.65-7.16,12.52-13.46C602.56,341.69,602.39,334.72,598.36,328.42Zm-6.22,19.88c-3.12,5.75-7.83,8.52-14.25,8.62-2.56,0-5.13.05-7.69,0-2.81,0-3.5-.79-3.49-3.49,0-4.07,0-8.14,0-12.21h0c0-4.22,0-8.45,0-12.67,0-2.92,1.06-4.07,4-3.95a82.53,82.53,0,0,1,11.24.86C591.79,327.22,596.89,339.54,592.14,348.3Z"/><path class="cls-1" d="M465.14,350.83c-.81-1.24-1-2.49.56-3.48,6.12-3.8,7.91-9.51,7.06-16.34s-5.09-11.64-11.76-12.39c-7-.79-14.11-.76-21.17-1-3.35-.12-4.27.89-4.28,4.29q0,9.61,0,19.22h0c0,6.55,0,13.11,0,19.66,0,2.08.88,3.11,2.92,3.16.76,0,1.51,0,2.26,0,2.09.07,3-.9,3-3-.09-2.79-.07-5.58-.07-8.36,0-1.72.84-2.72,2.61-2.72a73.45,73.45,0,0,1,8.13.13,5.26,5.26,0,0,1,3.32,1.88,46.2,46.2,0,0,1,4.82,7.88c1.51,3.31,3.75,4.79,7.29,4.2a15.2,15.2,0,0,0,2.78-1,14.51,14.51,0,0,0-1.09-2.77C469.39,357,467.2,354,465.14,350.83Zm-6.23-8.42c-4.33.43-8.71.37-13.07.41-1.7,0-2.3-1.2-2.31-2.74,0-2.11,0-4.21,0-6.32h0c0-2-.05-4.06,0-6.09.05-1.66.71-3.12,2.6-3.05,4.42.17,8.85.38,13.24.9,3.55.42,6.42,3.58,6.05,8.9C465.19,338.46,462.69,342,458.91,342.41Z"/><path class="cls-1" d="M864.39,334.14c-4.6-14.67-19.8-20-33.48-14.76-8.45,3.23-13.44,9.92-14.47,19.18a20.67,20.67,0,0,0,1.95,11.91c4.58,8.85,11.91,13.75,23.31,13.73,4.84.35,10.19-1.47,14.81-5.19C864.61,352.5,867.42,343.84,864.39,334.14ZM841,357.08c-8.53.72-16.74-7.68-16.65-16.3a16.74,16.74,0,0,1,16.58-16.26,16.53,16.53,0,0,1,16.58,16.29C857.48,349.09,850,357.69,841,357.08Z"/><path class="cls-1" d="M538.36,332.77c-2.66-7.78-8.81-12.55-17.11-14.57-10.54-2.56-23.34,2.14-28.09,12.48-3.67,8-3.35,16,1.6,23.17,4.74,6.93,11.63,10.53,20.42,10.3a23.09,23.09,0,0,0,18.1-7.28C540.14,349.92,541.31,341.39,538.36,332.77Zm-23.11,24.31c-8.74.76-16.93-8.46-16.63-16.38a16.81,16.81,0,0,1,16.9-16.19A16.62,16.62,0,0,1,531.87,341C532,348.78,524.29,357.85,515.25,357.08Z"/><path class="cls-1" d="M409.44,320.46a32.25,32.25,0,0,0-10.35-2.66c-5.09-.46-10.25-.16-15.37-.19-3.59,0-4.13.53-4.13,4.22v19h-.07q0,10.06,0,20.13c0,2.35.54,2.95,2.89,3,.67,0,1.35,0,2,0,2.39-.1,3-.79,3-3.22s-.06-4.82-.05-7.24c0-2.75.72-3.51,3.45-3.59,3.24-.08,6.49-.1,9.73-.1,7,0,14.42-4.67,15.65-13.2C417,331.41,415.74,323.32,409.44,320.46Zm-.67,13.7c-.15,4.35-2.51,7.78-6.33,8.21a114,114,0,0,1-12.41.38c-1.93,0-2.77-1.22-2.7-3.15s0-3.76,0-5.65h0c0-2,0-3.92,0-5.88s1.1-3.45,3.13-3.38a92.45,92.45,0,0,1,12.57,1C407.06,326.32,408.92,329.54,408.77,334.16Z"/><path class="cls-1" d="M660.57,334.77c0,3.77-.12,7.54,0,11.31.37,9.59-7.91,17.94-17.37,18-4.29,0-8.49.16-12.59-1.79-6.52-3.11-9.73-8.49-10.16-15.17-.56-8.79-.25-17.63-.22-26.45,0-2.44,1.11-3.14,4.21-3.11,2.7,0,3.79,1,3.8,3.64,0,7.39-.07,14.78,0,22.16a26.45,26.45,0,0,0,1,6.44A10.32,10.32,0,0,0,638,357c3.36.2,6.73.56,9.79-1.67a11.84,11.84,0,0,0,5.1-9.83c.14-8,0-16,.06-24,0-3,.81-3.84,3.42-3.91,3.61-.1,4.35.67,4.33,4.31,0,4.3,0,8.59,0,12.89Z"/><path class="cls-1" d="M678.69,121.15c3.36.24,6.87,3,10,6.34a26.39,26.39,0,0,1,2.64,3.64c2.88,4.34,1,8.37-.89,12.35-1.17,2.44-2.57,4.77-3.68,7.23-2.81,6.17-6.81,7.22-11.68,4.37s-8.72-6.31-10.66-11.74a7.18,7.18,0,0,1,.36-5.89c2.24-4.57,4.35-9.23,6.91-13.62C673.25,121.15,674,121.15,678.69,121.15Z"/><path class="cls-1" d="M703.14,364.16c-10.82.34-19.37-6.27-23-15.26-3.23-7.9-.28-19.45,6.25-25.09,7.79-6.74,16.6-7.67,26-4.59,2.29.75,4.34,2.36,6.39,3.75,1.54,1,1.5,2.44.33,3.89-2.52,3.1-2.86,3.15-6.22.83-5.67-3.91-11.72-4.33-17.73-1.16a16,16,0,0,0-8.23,16.76A15.8,15.8,0,0,0,695,354.72a16.81,16.81,0,0,0,8.6,2.26c4,0,7.31-1.53,10.41-3.75,2.09-1.49,3.06-1.28,5.14,1.42,1.2,1.55,1,2.89-.85,4.19C713.55,362.18,708.5,364.55,703.14,364.16Z"/><path class="cls-1" d="M748.81,344.55V328.94c0-3.71-.71-4.42-4.33-4.35l-7.24.18c-2,0-2.93-.94-3-3.32-.11-2.67.74-3.87,2.91-3.87q15.39,0,30.79.05c2.5,0,3.75,1.26,3.78,3.51s-1.17,3.47-3.76,3.54c-2.33.07-4.68-.1-7-.09-3.27,0-4.31,1.2-4.28,4.4.1,10.64.12,21.27.21,31.91,0,2-.87,3-2.8,3-.75,0-1.51,0-2.26,0-2.5-.07-3.07-.66-3.07-3.12,0-5.43,0-10.86,0-16.29Z"/><path class="cls-1" d="M789.07,341q0-9.71,0-19.42c0-3.38.66-4,3.92-4,3,0,3.9.94,3.91,4.17q0,19.65.09,39.3c0,1.86-.79,2.82-2.64,2.91l-.67,0c-4.41.11-4.62-.13-4.6-4.45,0-6.17,0-12.34,0-18.52Z"/></g></g></svg>