<svg xmlns="http://www.w3.org/2000/svg" viewBox="0 0 1080 478.19"><defs><style>.cls-1{fill:#fff;}</style></defs><g id="Layer_2" data-name="Layer 2"><g id="Layer_1-2" data-name="Layer 1"><path class="cls-1" d="M58.69,105.41v-2.87q0-40,0-79.91a3,3,0,0,1,1.57-2.11A222.59,222.59,0,0,1,100.64,6.68a237.16,237.16,0,0,1,73-6c42.7,3.14,82.14,15.85,117,41.18,26.23,19.06,46.46,43.08,58.71,73.36a138.76,138.76,0,0,1,10.29,60c-2.23,42-20.27,76.54-50.19,105.4-11.7,11.29-25.18,20.16-38.74,29-22.92,14.88-45.77,29.89-68.65,44.84-.72.47-1.45.91-2.11,1.31-17.49-17.54-34.89-35-52.42-52.57l16.23-10.62c23.27-15.22,46.66-30.26,69.77-45.71,18.81-12.57,32.9-29.2,39.82-51,10.29-32.39,2.87-61.28-19.13-86.54-16.63-19.09-38-30.65-62.41-36.59-33.09-8-65.35-5.42-96,9.76-11,5.46-21.1,12.83-31.61,19.34C62.49,102.88,60.81,104,58.69,105.41Z"/><path class="cls-1" d="M301.16,372.93c0,26.81-.11,53.13.12,79.44,0,3.8-1.14,5.35-4.46,6.76A233.71,233.71,0,0,1,229,476.79c-42.66,4.39-83.79-1.42-123-19-32.6-14.64-59.82-36-80.07-65.73C12.39,372.2,3.83,350.36,1,326.49c-4-34.18,3.72-65.83,21.72-95C36.15,209.72,53.89,192.07,75.1,178c27.76-18.41,55.74-36.5,83.63-54.72l1.08-.7c17.47,17.53,34.87,35,52.43,52.58l-6.55,4.32c-26.5,17.33-53.13,34.47-79.46,52.05-19.53,13-33.8,30.49-40.5,53.25-8.34,28.34-2.81,54.42,14.72,77.89,15.35,20.54,36.05,33.7,60.41,40.89,38.35,11.32,75.44,8.05,110.56-11.6,9.26-5.17,17.91-11.44,26.85-17.21C299.1,374.21,300,373.68,301.16,372.93Z"/><path class="cls-1" d="M934.71,78.68v56a33.67,33.67,0,0,0-14.12-11.6c-17.34-7.46-45.27-4.5-59.65,20.22-7.23,12.43-8.69,25.92-6.63,39.95,3.29,22.52,21.14,44.23,50.91,42.51,11.52-.67,20.92-5.3,28.14-14.32.45-.55.91-1.09,1.57-1.91,1,4.43,1.74,8.37,2.68,12.27.16.6,1,1.49,1.56,1.5,7.55.09,15.11.06,22.8.06V78.68ZM924,197.37c-13,9.23-36.44,5.71-41.66-16.41-2.15-9.14-1.25-18.07,4-26.12,6-9.25,17.12-13.4,28.38-10.9a25.69,25.69,0,0,1,20.12,21.28c.4,2.41.58,4.84.72,6.13C935.38,182.52,932.43,191.33,924,197.37Z"/><path class="cls-1" d="M1051.77,78.63v55.5a38.8,38.8,0,0,0-14.28-11.08c-17-7.34-44.57-4.66-59.18,19.38-7.66,12.61-9.26,26.4-7.14,40.76,3.42,23.08,21.59,44.23,50.88,42.55,11.61-.68,21.06-5.36,28.3-14.47.4-.51.86-1,1.47-1.64.92,4.25,1.84,8.15,2.58,12.07.24,1.31.78,1.68,2,1.65,4.5,0,9,0,13.48,0h8.94V78.63Zm-11,118.75c-14.11,9.92-38.61,4.65-42.16-19.22a34.36,34.36,0,0,1,2.09-18.78,26,26,0,0,1,27.34-16c12.54,1.37,21.45,9.56,23.62,21.82.43,2.4.55,4.84.69,6.09C1052.26,182.57,1049.31,191.39,1040.78,197.38Z"/><path class="cls-1" d="M740.54,164.66c-2.12-17.58-10.87-31.14-26.48-39.9-12.34-6.94-34.43-8.39-47.53,3.77-2.36,2.17-4.47,4.6-7,7.24V78.69H632.61V223.33c7.68,0,15.16,0,22.65-.06a2.53,2.53,0,0,0,1.73-1.56c1-3.6,1.76-7.26,2.51-10.48,3.71,3.06,7.14,6.63,11.24,9.09,16.22,9.73,39.93,6.5,54.07-7.2C738.57,199.77,742.76,183.11,740.54,164.66Zm-29.18,19.67C707.55,195.27,697.8,202,686,202c-14.19,0-25.13-10.07-26.61-24.28-.78-7.47-.12-14.67,3.7-21.24,5.67-9.81,14.54-14,25.59-13,11.34,1,18.85,7.38,22.69,17.94A33.41,33.41,0,0,1,711.36,184.33Z"/><path class="cls-1" d="M420.19,78.59h27v58c.52-.58.7-.76.84-.95,8.19-11.14,19.31-16.28,33-16.06,8.3.13,16.13,1.87,22.88,7,8.34,6.33,12.3,15.19,13.92,25.18A88.92,88.92,0,0,1,519,165.36c.12,18.6,0,37.2,0,55.8,0,.62,0,1.23-.09,2H492V220.6c0-18,0-36.09-.09-54.14a40.27,40.27,0,0,0-1.23-9.33c-2.76-11.16-10.4-15.23-20.9-14.51-12.61.87-20.95,9.49-22.18,22.28-.18,1.8-.24,3.62-.25,5.43q0,25.06,0,50.12v2.72H420.19Z"/><path class="cls-1" d="M630.27,122c-4.76,11.11-9.33,21.8-13.92,32.47q-23.86,55.45-47.69,110.92a3.28,3.28,0,0,1-3.64,2.35c-7.88-.11-15.77,0-23.65,0h-2.63l24.49-55.34a4.87,4.87,0,0,0-1.35-.21c-3.9.86-5.29-1.33-6.73-4.58-12.32-27.81-24.85-55.54-37.32-83.28l-.94-2.12c.91-.06,1.58-.15,2.25-.15,8.35,0,16.71,0,25.07,0a2.71,2.71,0,0,1,2.95,2c9.25,20.91,18.56,41.8,28.07,63.17,1.21-3,2.27-5.63,3.32-8.27,7.25-18.18,14.53-36.35,21.7-54.56a3.06,3.06,0,0,1,3.43-2.31C612.42,122,621.17,122,630.27,122Z"/><path class="cls-1" d="M924.61,359.29H907.78v-2.63c0-13,0-26,0-39,0-12.57-9.94-23.53-22.07-24.51-13.63-1.09-25.29,7.62-27.45,20.55a27.8,27.8,0,0,0-.26,4.47q0,19.15,0,38.31v2.75H841.43a14.55,14.55,0,0,1-.17-1.71c.07-14.5-.2-29,.33-43.49.66-18.13,16.39-34.79,34.51-37.24,16-2.18,29.41,2.5,39.58,15.39.14.18.32.32-.06-.13,2.55-2.21,5-4.52,7.66-6.62,12.82-10.21,27.2-12.08,42-6,14.66,6,23.46,17.4,25.39,33.44a106.84,106.84,0,0,1,.36,12.28c0,10.48,0,21,0,31.44v2.67H974.4v-2.67c0-13,0-26,0-39a24.92,24.92,0,0,0-48.72-7.11,29.33,29.33,0,0,0-1,7.92c-.1,12.69,0,25.38,0,38.07Z"/><path class="cls-1" d="M996.86,276.28h16.51v2.6c0,13,0,26,0,39,0,18.56,20.49,30.8,36.71,21.78,8.74-4.86,13.2-12.52,13.14-22.68-.06-12.61,0-25.22,0-37.83v-2.88h16.65c0,.78.11,1.46.11,2.14q0,40.56,0,81.1a41.39,41.39,0,0,1-32.47,40.36c-22.38,5-44.77-9.13-49.66-31.33-.05-.22,0-.46-.1-1H1001c3.24,0,6.49.2,9.7-.06,2.93-.24,4.45.61,5.85,3.43,4.76,9.6,15.06,14.57,25.85,13a24.81,24.81,0,0,0,20.38-20c.66-4,.11-8.25.11-11.88-4.14,1.82-8.41,4.29-13,5.63a41.26,41.26,0,0,1-53-38.86c-.29-13.79-.06-27.58-.06-41.37C996.76,277.09,996.81,276.79,996.86,276.28Z"/><path class="cls-1" d="M734.59,234.89v49.18c-.29,0-.37,0-.43,0l-1-.63c-10.41-7-21.77-8.79-33.86-5.86-19.81,4.8-33,24.09-30.86,45,1.9,18.84,17.19,34.62,35.86,36.42,7.11.69,14.32.41,21.48.46,8.44.07,16.86,0,25.54,0V234.89Zm.11,105.61c0,.69-.08,1.38-.14,2.31h-6c-7-.05-14.06.26-21-.25-13.61-1-23.41-12.72-22.63-26.52.74-13,12-23.23,25.31-23a24.62,24.62,0,0,1,24.45,24.57C734.74,325.23,734.71,332.87,734.7,340.5Z"/><path class="cls-1" d="M838.81,315.77a40.08,40.08,0,0,0-.76-6.55c-4.53-22-26-36.3-48.44-32.33C767.81,280.73,752.67,302,756,324a41.38,41.38,0,0,0,41,35.36c13.09,0,26.17,0,39.25,0h2.48V342.81h-2.69c-12.61,0-25.22,0-37.83,0-8.22,0-15.08-3-20.31-9.3-1.69-2-2.82-4.55-4.54-7.37h65.46C838.84,322.52,838.93,319.15,838.81,315.77Zm-64.75-6.55c3.28-9.87,13-16.44,23.77-16.2,10.41.24,20,7.05,22.58,16.2Z"/><path class="cls-1" d="M493.13,316.9c0-21.3-18-39.21-38.3-40.61-23.91-1.63-43.65,15.83-44.93,39.82-1.08,20.1,13,38.52,32.8,42.27,5.74,1.09,11.75.91,17.64,1,10.79.14,21.58,0,32.63,0a12.33,12.33,0,0,0,.16-1.37C493.14,344.32,493.17,330.61,493.13,316.9Zm-16.75,26.26c-10.43-.36-20.63.27-30.49-1.28-12.72-2-20.65-14.36-19.2-27.37C428,302.7,439,293.12,451.31,293a24.67,24.67,0,0,1,25.07,24.69C476.4,326,476.38,334.24,476.38,343.16Z"/><path class="cls-1" d="M664.62,317.16c-.16-28.4-29.21-48.39-55.88-38.51a41.78,41.78,0,0,0-26.66,47.06c3.56,19.48,20.82,33.66,41,33.69,13,0,26,0,39,0h2.42c.05-.91.11-1.6.11-2.29C664.64,343.8,664.71,330.47,664.62,317.16Zm-16.7,26c-10.42-.36-20.62.22-30.49-1.28-12.15-1.83-20.74-14.51-19.32-26.19,1.64-13.42,12.1-22.82,25.21-22.67a24.46,24.46,0,0,1,24.55,24C648.19,325.48,647.92,334,647.92,343.16Z"/><path class="cls-1" d="M776.53,223.22H749.47V122.1h24.07c.78,5.89,1.56,11.76,2.42,18.14,9-14,21.46-20.62,37.72-20.66v28.81c-1,0-1.9,0-2.81,0-4.4.14-8.85,0-13.21.51-12.52,1.54-19.73,9.19-20.78,21.8-.29,3.52-.33,7.08-.34,10.62,0,13,0,26,0,39Z"/><path class="cls-1" d="M578.77,309.46c-5.3,0-10.65.05-16-.07-.57,0-1.35-.88-1.66-1.53-4.45-9.46-11.91-14.51-22.31-14.79-10.6-.28-18.29,4.84-23,14.06-7.62,14.75,2.89,34.19,19.48,35.3,12.4.83,24.89.31,37.35.38,2.35,0,4.71,0,7.21,0v16.59H538.42a41.32,41.32,0,0,1-41.18-34.33,41.77,41.77,0,0,1,26.92-46.49c23.16-8.52,49.72,6.13,54.75,30.2A3.07,3.07,0,0,1,578.77,309.46Z"/><path class="cls-1" d="M817.35,122.08h27V223.17h-27Z"/><path class="cls-1" d="M831.52,108.05c-8.32,0-14.31-3.75-16.46-9.94a15.12,15.12,0,0,1,13.56-20.44,25.93,25.93,0,0,1,9.49,1.13c7.12,2.43,10.61,8.93,9.58,16.72-.84,6.38-6.79,11.69-13.92,12.41C832.83,108,831.89,108,831.52,108.05Z"/></g></g></svg>