<svg xmlns="http://www.w3.org/2000/svg" viewBox="0 0 562.3 557.05" width="100" height="100"><defs><style>.cls-1{fill:#fff;}</style></defs><g id="Layer_2" data-name="Layer 2"><g id="Layer_1-2" data-name="Layer 1"><path class="cls-1" d="M526.38,142.16C499.07,94.07,460.62,57.3,411.65,31.61A276.58,276.58,0,0,0,319.53,2.39V245.48H241.35V73.93a218.5,218.5,0,0,1,38.34-3.7V0C209.27-.75,110.83,30,47.29,123.84a275.73,275.73,0,0,0-10.16,292.6C89.12,506.32,177,546,241.27,553.61V345.7h78.38V480.37a209.84,209.84,0,0,1-38.83,3.79v72.25c15,3.27,70.59-6.5,100.11-17.76Q458.66,509,508.32,442.21A275.87,275.87,0,0,0,526.38,142.16ZM224.59,404.39l-19.14-9.86c3.77,8.09,7.35,15.79,10.93,23.5l-.72.51c-.76-.73-1.57-1.41-2.26-2.2-7.09-8.13-14.14-16.29-21.25-24.4a14,14,0,0,0-3-2.71c-5.77-3.56-11.57-7.07-17.43-10.48a15.94,15.94,0,0,0-4.44-1.61c-2.19-.49-3,.15-2.55,2.32.84,4.28,1.75,8.57,3,12.74,2.59,8.74,5.8,17.31,8,26.13,1.62,6.38,2.09,13.05,3,19.6a7.27,7.27,0,0,1-.31,2.13l-.66.24a14.09,14.09,0,0,1-1.77-2.86c-1.42-4.44-2.69-8.92-4-13.4a20.28,20.28,0,0,0-.74-2.33c.26,7.51,1.77,15,.11,22.61-5.32-5.81-7.61-13.16-11.14-20.46l3.56,17.72-.74.39a13,13,0,0,1-1.59-1.56c-3.34-4.57-7-9-9.83-13.81-1.55-2.61-2.1-5.94-2.64-9-1.4-8.1-2.4-16.26-3.89-24.34-.39-2.13-2-4-3-6.05l-.79.25v44.35a209.55,209.55,0,0,1-42.84-52.38c-3.34,1.25-6.13-.34-8.24-2.31-4.78-4.44-10.35-3.91-16-3.3-2.61.28-5.16,1.12-7.78,1.42-.93.11-2-.6-2.95-.94.69-1,1.19-2.52,2.09-2.79a53.33,53.33,0,0,1,9.27-2c5.45-.67,10.94-1.05,16.68-1.58-2.55-7-4.9-14.11-11.61-18.46a20.39,20.39,0,0,1-6.61-7.59C68,332.21,63.42,322.31,62.66,311c-.64-9.5-4.9-18.14-7.23-27.24-3-11.74-9.18-21.68-17.34-30.28-4.82-5.07-6.62-10.73-6.92-17.32A3.47,3.47,0,0,0,30,233.76c-6.31-4.66-12.73-9.16-19-13.83a16.93,16.93,0,0,1-2.71-3.3c1.24-.74,2.48-2.09,3.74-2.11,3.73-.06,7.63-.17,11.19.78,6.71,1.79,13,1.71,19.18-1.66,2.37-1.29,4.71-.94,7.15.16,3.63,1.64,7.57,2.66,11.07,4.53a125.77,125.77,0,0,1,11.53,7.45c1.6,1.09,3,2.47,4.68,3.87,10.45-42.24,31.88-77.62,64.52-107v3.1q0,78-.08,155.92c0,2.66,1.16,3.95,3.09,5.19q11,7.07,22,14.25a22.51,22.51,0,0,1,4.59,4.23c-5,2-10,.16-14.86.7,0,.19,0,.38,0,.56h3.23a20.53,20.53,0,0,1,12.77,4.5c5.87,4.42,10.36,10.06,14.29,16-1.17,2.54-2.49,4.9-3.38,7.42a10.51,10.51,0,0,0,2.23,11.35q4,4.29,8.11,8.53a26.86,26.86,0,0,1,6.17,9.58,25.28,25.28,0,0,0,10.45,12.71,4.48,4.48,0,0,1,1.49,1.57c3.09,5.77,6.12,11.56,9.16,17.35,1.47,2.8,2.92,5.61,4.38,8.41ZM549.44,219.12c-6.09,4.45-12.22,8.84-18.27,13.35A4.09,4.09,0,0,0,530,234.9c-.47,2.67-.37,5.5-1.25,8a22.55,22.55,0,0,1-4.15,7.33c-8,9.15-15.11,18.79-18.28,30.81a103.28,103.28,0,0,1-3.25,10.34c-3.43,9.05-4,18.68-6,28s-6.74,17.83-12.15,25.78a7,7,0,0,1-2.17,2c-7.27,4.47-10.2,11.76-12.79,19.45,5.4.49,10.72.89,16,1.48,2.69.29,5.35.89,8,1.42a4.79,4.79,0,0,1,2.29.88,11,11,0,0,1,1.58,2.5,7,7,0,0,1-2.46,1,26,26,0,0,1-4.24-.64c-2.37-.4-4.73-1-7.13-1.15-4.84-.33-9.29.37-13.19,3.94-3,2.74-5.45,2.84-7.47,1.94-6.63,9.39-13,18.88-19.88,28s-14.87,17.14-23.75,25.08V386.6c-1.8,1.89-3,3.36-3.28,5.64-1.34,9.25-2.78,18.49-4.5,27.68a22.43,22.43,0,0,1-3.2,7.59c-2.46,3.87-5.34,7.48-8.07,11.18a7,7,0,0,1-2,1.81c-.09-6,1.76-11.64,2.78-17.42-3.33,6.76-5.72,14-10.87,20.62a12.65,12.65,0,0,1-.81-3c.2-5.8.49-11.59.77-17.39a23.31,23.31,0,0,0,.07-2.9c-1.85,6.26-2.66,12.88-6.28,18.47l-.78-.08a8.23,8.23,0,0,1-.42-2.44c.95-6.54,1.45-13.22,3.11-19.58,3.16-12.17,7-24.15,10.48-36.24.4-1.4,0-3,0-4.56-1.6.21-3.44,0-4.74.7-6.94,3.94-13.75,8.1-20.57,12.23a7.32,7.32,0,0,0-1.54,1.64Q359.75,402.27,349.61,414c-1,1.16-2.16,2.17-3.25,3.25l-.69-.44,10.94-23.61-19,9.83-.47-.39c2.3-4.18,4.64-8.34,6.88-12.55s4.21-8.32,6.41-12.42a7.76,7.76,0,0,1,2.26-2.6,30.61,30.61,0,0,0,10.16-12.73,39,39,0,0,1,5-8.2c2.18-2.77,4.92-5.1,7.32-7.71,5.64-6.11,6.09-11.06,1.76-18.18-.43-.71-.9-1.39-1.44-2.22,4.57-6.85,9.57-13.31,16.69-17.82a19.4,19.4,0,0,1,10.74-3h2.87c0-.23,0-.46,0-.69-1.54.07-3.07.12-4.61.21-1.73.09-3.46.3-5.19.28s-3.2-.29-4.8-.45c-.09-.26-.18-.53-.28-.79a21.16,21.16,0,0,1,2.61-2.5c7.71-5.15,15.42-10.31,23.24-15.29a5.57,5.57,0,0,0,3-5.36q-.15-77.17-.07-154.35v-3c32.12,29.18,53.29,64.25,63.71,106.12,1.77-1.5,3.33-2.86,4.93-4.18,5-4.1,10-8,16.42-9.67,2.74-.73,5.2-2.44,7.91-3.31a17.67,17.67,0,0,1,5.21-.29,3.75,3.75,0,0,1,1.7.58c5.73,3.23,11.63,3.25,17.87,1.53a43.46,43.46,0,0,1,10.08-1.14c2,0,4.56.15,5.17,2.39C553.27,217.39,550.84,218.09,549.44,219.12Z"/></g></g></svg>