<svg width="120" height="13" viewBox="0 0 120 13" fill="none" xmlns="http://www.w3.org/2000/svg">
<path d="M10.1883 0.832V12H7.94831V7.248H3.16431V12H0.924313V0.832H3.16431V5.424H7.94831V0.832H10.1883ZM20.5231 0.832L16.7471 8.112V12H14.5071V8.112L10.7151 0.832H13.2431L15.6431 5.936L18.0271 0.832H20.5231ZM27.4009 6.272C28.0303 6.38933 28.5476 6.704 28.9529 7.216C29.3583 7.728 29.5609 8.31467 29.5609 8.976C29.5609 9.57333 29.4116 10.1013 29.1129 10.56C28.8249 11.008 28.4036 11.36 27.8489 11.616C27.2943 11.872 26.6383 12 25.8809 12H21.0649V0.832H25.6729C26.4303 0.832 27.0809 0.954666 27.6249 1.2C28.1796 1.44533 28.5956 1.78667 28.8729 2.224C29.1609 2.66133 29.3049 3.15733 29.3049 3.712C29.3049 4.36267 29.1289 4.90667 28.7769 5.344C28.4356 5.78133 27.9769 6.09067 27.4009 6.272ZM23.3049 5.44H25.3529C25.8863 5.44 26.2969 5.32267 26.5849 5.088C26.8729 4.84267 27.0169 4.496 27.0169 4.048C27.0169 3.6 26.8729 3.25333 26.5849 3.008C26.2969 2.76267 25.8863 2.64 25.3529 2.64H23.3049V5.44ZM25.5609 10.176C26.1049 10.176 26.5263 10.048 26.8249 9.792C27.1343 9.536 27.2889 9.17333 27.2889 8.704C27.2889 8.224 27.1289 7.85067 26.8089 7.584C26.4889 7.30667 26.0569 7.168 25.5129 7.168H23.3049V10.176H25.5609ZM36.3562 12L33.8922 7.648H32.8362V12H30.5962V0.832H34.7882C35.6522 0.832 36.3882 0.986666 36.9962 1.296C37.6042 1.59467 38.0575 2.00533 38.3562 2.528C38.6655 3.04 38.8202 3.616 38.8202 4.256C38.8202 4.992 38.6069 5.65867 38.1802 6.256C37.7535 6.84267 37.1189 7.248 36.2762 7.472L38.9482 12H36.3562ZM32.8362 5.968H34.7082C35.3162 5.968 35.7695 5.824 36.0682 5.536C36.3669 5.23733 36.5162 4.82667 36.5162 4.304C36.5162 3.792 36.3669 3.39733 36.0682 3.12C35.7695 2.832 35.3162 2.688 34.7082 2.688H32.8362V5.968ZM42.3362 0.832V12H40.0962V0.832H42.3362ZM47.7033 0.832C48.8766 0.832 49.906 1.06133 50.7913 1.52C51.6873 1.97867 52.3753 2.63467 52.8553 3.488C53.346 4.33067 53.5913 5.312 53.5913 6.432C53.5913 7.552 53.346 8.53333 52.8553 9.376C52.3753 10.208 51.6873 10.8533 50.7913 11.312C49.906 11.7707 48.8766 12 47.7033 12H43.7993V0.832H47.7033ZM47.6233 10.096C48.7966 10.096 49.7033 9.776 50.3433 9.136C50.9833 8.496 51.3033 7.59467 51.3033 6.432C51.3033 5.26933 50.9833 4.36267 50.3433 3.712C49.7033 3.05067 48.7966 2.72 47.6233 2.72H46.0393V10.096H47.6233ZM58.4221 0.832C59.5954 0.832 60.6247 1.06133 61.5101 1.52C62.4061 1.97867 63.0941 2.63467 63.5741 3.488C64.0647 4.33067 64.3101 5.312 64.3101 6.432C64.3101 7.552 64.0647 8.53333 63.5741 9.376C63.0941 10.208 62.4061 10.8533 61.5101 11.312C60.6247 11.7707 59.5954 12 58.4221 12H54.5181V0.832H58.4221ZM58.3421 10.096C59.5154 10.096 60.4221 9.776 61.0621 9.136C61.7021 8.496 62.0221 7.59467 62.0221 6.432C62.0221 5.26933 61.7021 4.36267 61.0621 3.712C60.4221 3.05067 59.5154 2.72 58.3421 2.72H56.7581V10.096H58.3421ZM76.0753 4.192C75.8193 3.72267 75.4673 3.36533 75.0193 3.12C74.5713 2.87467 74.0486 2.752 73.4513 2.752C72.79 2.752 72.2033 2.90133 71.6913 3.2C71.1793 3.49867 70.7793 3.92533 70.4913 4.48C70.2033 5.03467 70.0593 5.67467 70.0593 6.4C70.0593 7.14667 70.2033 7.79733 70.4913 8.352C70.79 8.90667 71.2006 9.33333 71.7233 9.632C72.246 9.93067 72.854 10.08 73.5473 10.08C74.4006 10.08 75.0993 9.856 75.6433 9.408C76.1873 8.94933 76.5446 8.31467 76.7153 7.504H72.8753V5.792H78.9233V7.744C78.774 8.52267 78.454 9.24267 77.9633 9.904C77.4726 10.5653 76.838 11.0987 76.0593 11.504C75.2913 11.8987 74.4273 12.096 73.4673 12.096C72.39 12.096 71.414 11.856 70.5393 11.376C69.6753 10.8853 68.9926 10.208 68.4913 9.344C68.0006 8.48 67.7553 7.49867 67.7553 6.4C67.7553 5.30133 68.0006 4.32 68.4913 3.456C68.9926 2.58133 69.6753 1.904 70.5393 1.424C71.414 0.933333 72.3846 0.688 73.4513 0.688C74.71 0.688 75.8033 0.997333 76.7313 1.616C77.6593 2.224 78.2993 3.08267 78.6513 4.192H76.0753ZM85.5906 12L83.1266 7.648H82.0706V12H79.8306V0.832H84.0226C84.8866 0.832 85.6226 0.986666 86.2306 1.296C86.8386 1.59467 87.2919 2.00533 87.5906 2.528C87.8999 3.04 88.0546 3.616 88.0546 4.256C88.0546 4.992 87.8412 5.65867 87.4146 6.256C86.9879 6.84267 86.3532 7.248 85.5106 7.472L88.1826 12H85.5906ZM82.0706 5.968H83.9426C84.5506 5.968 85.0039 5.824 85.3026 5.536C85.6012 5.23733 85.7506 4.82667 85.7506 4.304C85.7506 3.792 85.6012 3.39733 85.3026 3.12C85.0039 2.832 84.5506 2.688 83.9426 2.688H82.0706V5.968ZM94.5146 12.112C93.4692 12.112 92.5092 11.8667 91.6346 11.376C90.7599 10.8853 90.0666 10.208 89.5546 9.344C89.0426 8.46933 88.7866 7.48267 88.7866 6.384C88.7866 5.296 89.0426 4.32 89.5546 3.456C90.0666 2.58133 90.7599 1.89867 91.6346 1.408C92.5092 0.917333 93.4692 0.672 94.5146 0.672C95.5706 0.672 96.5306 0.917333 97.3946 1.408C98.2692 1.89867 98.9572 2.58133 99.4586 3.456C99.9706 4.32 100.227 5.296 100.227 6.384C100.227 7.48267 99.9706 8.46933 99.4586 9.344C98.9572 10.208 98.2692 10.8853 97.3946 11.376C96.5199 11.8667 95.5599 12.112 94.5146 12.112ZM94.5146 10.112C95.1866 10.112 95.7786 9.96267 96.2906 9.664C96.8026 9.35467 97.2026 8.91733 97.4906 8.352C97.7786 7.78667 97.9226 7.13067 97.9226 6.384C97.9226 5.63733 97.7786 4.98667 97.4906 4.432C97.2026 3.86667 96.8026 3.43467 96.2906 3.136C95.7786 2.83733 95.1866 2.688 94.5146 2.688C93.8426 2.688 93.2452 2.83733 92.7226 3.136C92.2106 3.43467 91.8106 3.86667 91.5226 4.432C91.2346 4.98667 91.0906 5.63733 91.0906 6.384C91.0906 7.13067 91.2346 7.78667 91.5226 8.352C91.8106 8.91733 92.2106 9.35467 92.7226 9.664C93.2452 9.96267 93.8426 10.112 94.5146 10.112ZM103.351 0.832V7.744C103.351 8.50133 103.548 9.08267 103.943 9.488C104.338 9.88267 104.892 10.08 105.607 10.08C106.332 10.08 106.892 9.88267 107.287 9.488C107.682 9.08267 107.879 8.50133 107.879 7.744V0.832H110.135V7.728C110.135 8.67733 109.927 9.48267 109.511 10.144C109.106 10.7947 108.556 11.2853 107.863 11.616C107.18 11.9467 106.418 12.112 105.575 12.112C104.743 12.112 103.986 11.9467 103.303 11.616C102.631 11.2853 102.098 10.7947 101.703 10.144C101.308 9.48267 101.111 8.67733 101.111 7.728V0.832H103.351ZM119.693 4.288C119.693 4.88533 119.549 5.44533 119.261 5.968C118.984 6.49067 118.541 6.912 117.933 7.232C117.336 7.552 116.579 7.712 115.661 7.712H113.789V12H111.549V0.832H115.661C116.525 0.832 117.261 0.981333 117.869 1.28C118.477 1.57867 118.931 1.98933 119.229 2.512C119.539 3.03467 119.693 3.62667 119.693 4.288ZM115.565 5.904C116.184 5.904 116.643 5.76533 116.941 5.488C117.24 5.2 117.389 4.8 117.389 4.288C117.389 3.2 116.781 2.656 115.565 2.656H113.789V5.904H115.565Z" fill="white"/>
</svg>
