<svg xmlns="http://www.w3.org/2000/svg" viewBox="0 0 976.52 496.11"><defs><style>.cls-1{fill:#fff;}</style></defs><g id="Layer_2" data-name="Layer 2"><g id="Layer_1-2" data-name="Layer 1"><path class="cls-1" d="M411.49,113.7c-1.38-.88-119.85-69.07-122.93-70.89C286.5,41.6,220.71,3.59,216.81,1.38c-1.86-1-3.62-2.15-6-.65-3,1.93-201.28,116.19-208.21,120A4.66,4.66,0,0,0,0,125.26V307.45q0,89.61,0,179.24a25.3,25.3,0,0,0,.87,5.83c.94,3.85,3.8,4.71,6.71,2.05C12,490.53,144.17,372,145.83,370a6.26,6.26,0,0,1,5.31-2.17q128.94.07,257.88,0c3.35,0,4.58-1.23,4.58-4.54V223.94q0-53.4,0-106.82C413.63,115.43,413,114.69,411.49,113.7ZM369.68,321.53c0,2.57-1,3.34-3.57,3a27.32,27.32,0,0,0-3.82-.31q-112.17,0-224.35,0a13.67,13.67,0,0,0-9.61,3.71C116,339,53.44,394.78,46.41,401a25.4,25.4,0,0,1-2.27,1.54,27,27,0,0,1-.35-2.76q0-124.35,0-248.7c0-3.74,1.48-5.54,4.48-7.14,5-2.69,159.66-92.42,162.81-94a4.46,4.46,0,0,1,3.58,0c4.23,2.25,150,86.37,152.25,87.65a4.79,4.79,0,0,1,2.82,4.49q-.08,85.67-.07,171.31C369.65,316.1,369.71,318.81,369.68,321.53Z"/><path class="cls-1" d="M679.5,209A23,23,0,0,0,676,198.27a25.75,25.75,0,0,0-4.16-4.33c-2-1.91-2.18-3.56-.06-5.29a20.84,20.84,0,0,0,6.63-12.75,11.74,11.74,0,0,0-.19-2.64A25.48,25.48,0,0,0,658.4,153a46.71,46.71,0,0,0-8.34-.93c-9.74-.1-19.47-.08-29.2,0-2.31,0-3.19,1.15-3.19,3.47v74.21c0,2.81.48,3.32,3.25,3.32,9.88,0,19.77,0,29.65,0,8.09,0,18.53-3.34,24-9.43A19.7,19.7,0,0,0,679.5,209Zm-39.9-35.2c0-1.77.72-2.68,2.57-2.61,1.43.05,2.87,0,4.3,0v.05c1.36,0,2.71-.05,4.07,0,2.84.11,5.12,1.8,5.37,3.91.43,3.63-.76,6.19-3.9,6.81a56.42,56.42,0,0,1-10.08.78,2.2,2.2,0,0,1-2.38-2.63C639.68,178,639.62,175.91,639.6,173.8Zm14.19,39.46c-3.72,2.1-7.58,1.42-11.42,1.58-1.88.07-2.9-.91-2.84-2.94.07-2.63.05-5.28,0-7.91,0-1.93.87-2.75,2.73-2.73,1.59,0,3.17,0,4.75,0a2,2,0,0,0,0-.26,45.43,45.43,0,0,1,6.84,1,6,6,0,0,1,4.14,6C658,210.58,656.49,211.73,653.79,213.26Z"/><path class="cls-1" d="M886.81,188.64a56.53,56.53,0,0,0-1.19-6.93,38.8,38.8,0,0,0-7.14-13.58c-4.57-5.78-10.72-9.76-17.67-12.77-5.63-2.44-11.48-2.58-17.22-3.11-7.85-.73-15.83-.19-23.75-.18-2.67,0-4.08,1.45-4.08,4.13v36.21q0,18.33,0,36.65c0,3.28.76,4,4,4H846c30,0,38.44-25.12,39.82-31.6a56.28,56.28,0,0,0,.94-7.2C886.94,192.42,886.84,190.52,886.81,188.64ZM860.07,207c-2.33,3.28-5.33,5.82-9.64,6.28-3.21.34-6.4,1-9.62,1.2-2.59.16-3.17-.61-3.18-3.18q0-9.39,0-18.77v-5.19c0-4.46,0-8.91,0-13.36,0-2,.69-3.15,2.61-3.08,6,.21,12.13.27,17.13,4.28a17.13,17.13,0,0,1,6.73,13.19c.09,2.4.06,4.68.06,7.2A19.05,19.05,0,0,1,860.07,207Z"/><path class="cls-1" d="M975.64,188.64a56.92,56.92,0,0,0-1.2-6.93,38.78,38.78,0,0,0-7.13-13.58c-4.57-5.78-10.72-9.76-17.67-12.77-5.63-2.44-11.48-2.58-17.22-3.11-7.85-.73-15.83-.19-23.75-.18-2.67,0-4.08,1.45-4.08,4.13v36.21q0,18.33,0,36.65c0,3.28.76,4,4,4h26.26c30,0,38.43-25.12,39.82-31.6a58.12,58.12,0,0,0,.94-7.2C975.77,192.42,975.67,190.52,975.64,188.64ZM948.9,207c-2.33,3.28-5.33,5.82-9.64,6.28-3.21.34-6.4,1-9.62,1.2-2.59.16-3.17-.61-3.18-3.18q0-9.39,0-18.77v-5.19c0-4.46,0-8.91-.05-13.36,0-2,.69-3.15,2.61-3.08,6,.21,12.13.27,17.13,4.28a17.13,17.13,0,0,1,6.73,13.19c.09,2.4.06,4.68.06,7.2A19.05,19.05,0,0,1,948.9,207Z"/><path class="cls-1" d="M758.72,229.94l-.1-.19c-.91-1.63-2-3.18-3-4.77-4.31-7-8.92-14-12.8-21.26-.55-1-.16-3.78.52-4.07,6.8-2.9,11.39-10.76,13-17.67,2.41-10-3.68-18.8-11.21-24.68a22.93,22.93,0,0,0-9.35-4.17,82.48,82.48,0,0,0-14-1C714.9,152,708,152.17,701,152a5,5,0,0,0-5.07,5c.12,11.84,0,23.68,0,35.52v35.53c0,3.72,1.32,5,5.07,5,4.45,0,8.9,0,13.35,0,2.66,0,4.45-1.33,4.3-3.95-.32-6-.48-19.31-.2-19.84s.46-1.31,1.14-1.58a1.82,1.82,0,0,1,1.72.49c4.58,7.64,9.37,15.27,13.72,23a3,3,0,0,0,2.93,1.87c6.27,0,12.53,0,18.79,0,.23,0,.5.08.67,0C759.53,232,759.76,231.83,758.72,229.94Zm-25-47.7a5.61,5.61,0,0,1-5.68,2.88c-1-.09-1.95,0-2.93,0v0c-1.43,0-2.86,0-4.29,0a2.2,2.2,0,0,1-2.37-2.61c.14-3.08.25-6.15.36-9.22.08-2.23,1.31-3.15,3.56-2.81a31.7,31.7,0,0,0,6,.65,6.09,6.09,0,0,1,6.07,3.82C735.62,177.44,735.12,179.93,733.7,182.24Z"/><path class="cls-1" d="M450.93,192.54V155.42c0-2.92.44-3.35,3.44-3.35H467.5c3.77,0,4.41.64,4.41,4.35q0,11.76,0,23.53c0,2.5.58,3.1,3,3.11,6.79,0,13.58,0,20.37,0,1.73,0,2.17-.57,2.16-2.22-.08-8.38,0-16.75,0-25.12,0-3.34.32-3.69,3.56-3.69,4.31,0,8.62.17,12.91-.06a5.1,5.1,0,0,1,5.45,5.39c-.11,23.08,0,46.17-.1,69.25a14.73,14.73,0,0,1-1.07,5.1,3,3,0,0,1-2.34,1.29c-5.28.12-10.56.06-15.85.06-1.93,0-2.59-1-2.58-2.87,0-8.6,0-17.2,0-25.8,0-2.63-.53-3.16-3.19-3.17H475c-2.49,0-3.07.59-3.07,3.05q0,12.8,0,25.58c0,2.62-.55,3.2-3.13,3.21q-7.36,0-14.72,0c-2.58,0-3.12-.58-3.12-3.22Z"/><path class="cls-1" d="M655.84,287c-1.12-19.43-18.48-35.58-37.82-35.37-6.43.07-13,1.38-18.81,5.15s-10.64,8.06-13.88,13.88-5.69,11.92-5,18.58c-.66,9.57,4.24,19.58,10.52,26a36.71,36.71,0,0,0,25.58,11.69,35.85,35.85,0,0,0,26.7-9.52C652.05,309.24,656.54,299,655.84,287Zm-16.3,8.66A22,22,0,0,1,617.36,313c-12-.3-20.55-9.18-21.36-21-.06-.9,0-1.81,0-2.71-.24-7.63,2.06-14.26,8.15-19.13a18.66,18.66,0,0,1,11.72-4.26c9.66-.3,18.28,3.1,22.17,12.44A28.17,28.17,0,0,1,639.54,295.61Z"/><path class="cls-1" d="M566.09,179.15c2.87.62,3.92,0,5-3,1.6-4.39,3.4-9.06,5.38-13.43,1.23-2.71,3-9.59,6.49-10.13a14.9,14.9,0,0,1,1.89-.47c5.66,0,11.42-1,17,.08,2.58.47,2.67.4,2,2.4a26.86,26.86,0,0,1-2,3.79c-2.72,5.26-5.28,10.59-8,15.84L584.14,193c-2.78,5.34-6.27,11.11-5.76,17.37s.12,12.51.12,18.77a3.68,3.68,0,0,1-4,4c-4.68,0-9.35,0-14,0-2.09,0-3-.84-3-3q.09-11.43,0-22.85a6.61,6.61,0,0,0-.71-2.69c-8-16.53-16.27-33.45-25.12-49.67-.8-1.48-.17-2.83,1.53-2.85,6.19-.07,12.38,0,18.56,0a2.6,2.6,0,0,1,1.84,1.06c4,6.38,7,13.29,10.14,20.13C564.6,175.2,565.3,177.16,566.09,179.15Z"/><path class="cls-1" d="M567.14,319.52c-3.74-6.09-7.95-11.89-11.71-18-4.23-6.84,3.17-7.16,7.24-11.13a28.08,28.08,0,0,0,4.93-6.1,19.43,19.43,0,0,0,.48-18,22.55,22.55,0,0,0-4.42-5.94,29.61,29.61,0,0,0-19.19-8.06c-8-.28-16,0-24-.13a5,5,0,0,0-4.9,5c.13,10.78,0,21.57,0,32.35v2.49q0,15.06,0,30.1c0,2.91.93,3.84,3.76,3.85h8.15c3.16,0,3.56-.4,3.56-3.47q0-11.43,0-22.85c0-2.5,2.37-3.95,4.32-2.54,3.34,2.43,5.2,7.17,7.3,10.6,3.6,5.83,7.3,11.6,10.87,17.44a2,2,0,0,0,1.51.77c4.67.06,9.35.07,14,0,.36,0,1.1-1.12,1-1.34C569.17,322.88,568.17,321.19,567.14,319.52Zm-14.21-38.64c-2.12,2.75-4.65,4.31-8.25,4.16-3.38-.15-6.77,0-10.16,0-2.45,0-3.12-.7-3.12-3.24v-7.22h.05c0-2.48,0-5,0-7.45,0-2,.88-3.05,3.06-2.95,2.71.12,5.43-.11,8.12.13a28.29,28.29,0,0,1,6.29,1.38C555,267.67,556.26,276.55,552.93,280.88Z"/><path class="cls-1" d="M840.5,319.52c-3.75-6.09-8-11.89-11.71-18-4.23-6.84,3.16-7.16,7.24-11.13a28.08,28.08,0,0,0,4.93-6.1,19.43,19.43,0,0,0,.48-18A22.37,22.37,0,0,0,837,260.4a29.57,29.57,0,0,0-19.18-8.06c-8-.28-16,0-24-.13a5,5,0,0,0-4.9,5c.13,10.78,0,21.57,0,32.35v2.49q0,15.06,0,30.1c0,2.91.93,3.84,3.76,3.85h8.15c3.16,0,3.56-.4,3.56-3.47q0-11.43,0-22.85c0-2.5,2.37-3.95,4.32-2.54,3.34,2.43,5.2,7.17,7.3,10.6,3.6,5.83,7.3,11.6,10.87,17.44a2,2,0,0,0,1.51.77c4.67.06,9.35.07,14,0,.36,0,1.1-1.12,1-1.34C842.53,322.88,841.53,321.19,840.5,319.52Zm-14.21-38.64c-2.12,2.75-4.65,4.31-8.25,4.16-3.38-.15-6.77,0-10.16,0-2.45,0-3.12-.7-3.12-3.24v-7.22h0c0-2.48,0-5,0-7.45,0-2,.88-3.05,3.06-2.95,2.71.12,5.43-.11,8.12.13a28.29,28.29,0,0,1,6.29,1.38C828.36,267.67,829.62,276.55,826.29,280.88Z"/><path class="cls-1" d="M504.73,270.25c-2.83-11-14.29-17.56-25.16-17.91-7.84-.27-15.69,0-23.54-.14a5.08,5.08,0,0,0-5.16,5.23c.15,10.71.06,21.42.06,32.13q0,16.29,0,32.59c0,2.91.94,3.87,3.72,3.88,2.95,0,5.89,0,8.83,0,2.07,0,3-.8,3-3-.07-7.54,0-15.08,0-22.62,0-2.69,1.38-4,3.95-3.66,3.8.46,6.78.85,10.68.26,3.3-.51,6.9-.67,9.93-2a23.78,23.78,0,0,0,14-17.42A17.23,17.23,0,0,0,504.73,270.25Zm-24.8,14.81c-3.35-.32-6.77,0-10.15,0-2.35,0-3-.67-3-3.08s0-5,0-7.44h0c0-2.34,0-4.67,0-7,0-2.7.71-3.34,3.35-3.31,3.08,0,6.19-.16,9.25.12,4.38.4,8.16,2.06,9.94,6.51C492.17,277.94,486.73,285.73,479.93,285.06Z"/><path class="cls-1" d="M719.34,267.82c-.2-.49-.41-1-.65-1.44a23.59,23.59,0,0,0-7.72-8.53,31.27,31.27,0,0,0-15.7-5.4c-8-.58-16.13-.24-24.2-.18-2.88,0-4.23,1.59-4.22,4.5v32.8c0,11.15,0,22.31,0,33.47,0,2.1.83,3,2.93,3,2.72-.05,5.43,0,8.15,0,4,0,4.45-.49,4.45-4.52,0-5.35,0-24.43,0-24.49,0,.34,8.41.5,9.18.5a39.89,39.89,0,0,0,17-3.62C718,289.23,723.33,277.74,719.34,267.82Zm-17.56,15a11,11,0,0,1-5.3,2.05c-4,.32-8,.11-12,.17-1.53,0-2.19-.64-2.17-2.16,0-1.16,0-2.32,0-3.48,0-3.9-.36-7.91,0-11.8a3.92,3.92,0,0,1,1.3-2.9c1.06-.71,10.68-.13,13.88.31,3.71.52,6.63,2.81,7.33,6.7C705.57,275.78,705.59,280,701.78,282.81Z"/><path class="cls-1" d="M731.54,289.53q0-16.62,0-33.26a3.63,3.63,0,0,1,4-4q17.41,0,34.85,0c2.55,0,4,1.46,4,4,0,1.36,0,2.71,0,4.07a3.63,3.63,0,0,1-3.77,3.76c-7,0-14,0-21,0-3.23,0-3,1.5-3,4.63s-.05,5.25-.05,9c0,3.09.35,5.49,3.5,5.49h18.33c2.18,0,3.27,1.07,3.35,3.32,0,1.21,0,2.42,0,3.62,0,3.51-1.4,4.88-5,4.89-5.66,0-11.31,0-17,0-2.63,0-3.29,2.54-3.29,5.2,0,4.12,0,3.64,0,9.72,0,3.23.14,5.08,3.37,5.08h21.5c2.65,0,3.2.56,3.2,3.14,0,1.5,0,3,0,4.52,0,2.81-.48,3.32-3.25,3.32q-13,0-26,0c-3.32,0-6.64,0-10,0-3.15,0-3.56-.4-3.56-3.47Z"/><path class="cls-1" d="M798.05,192.61V229c0,2.66-1.43,4.07-4.14,4.08q-6.55,0-13.12,0c-3.15,0-4.6-1.42-4.61-4.59,0-4.14,0-8.29,0-12.44v-59c0-3.61,1.34-5,4.89-5h13.12A3.66,3.66,0,0,1,798,156Q798.06,174.29,798.05,192.61Z"/><path class="cls-1" d="M976.52,253.41c-8,15.83-16.32,31.49-24.23,47.37A5.14,5.14,0,0,0,952,303c0,6.64,0,13.27,0,19.91,0,2.52-.56,3.12-3,3.14-2.94,0-5.89,0-8.83,0-2,0-2.83-.89-2.81-2.89.06-5,.1-10,.1-14.93a29.71,29.71,0,0,0-4.22-15.93c-6.23-10.65-11.18-22-17.24-32.72a44.58,44.58,0,0,1-2.28-4.39,2.21,2.21,0,0,1,2.22-2.9c3.39-.07,6.8-.17,10.18,0,2.32.14,3.79,1.76,4.7,3.86,1.27,2.95,2.53,5.9,3.85,8.83,2.71,6,5.39,12.1,8.24,18.08a3.64,3.64,0,0,0,2.51,1.78c1.94,0,4.66-7.13,5.5-9.28,2.63-6.7,5.91-13.31,8.36-20.08.86-2.4,3-3,5-3.17a66.69,66.69,0,0,1,9.27,0A10.35,10.35,0,0,1,976.52,253.41Z"/><path class="cls-1" d="M888.23,294.78v28.05c0,2.67-.52,3.19-3.15,3.2-3.09,0-6.19,0-9.28,0-2.26,0-2.15.31-2.15-2v-3q0-26.81,0-53.62c0-2.74-.52-3.26-3.29-3.27-4.6,0-9.21,0-13.81,0-2.33,0-3.82.81-3.82-1.66,0-1.88,0-6.9,0-8.78,0-2.09,2.84-1.36,4.29-1.37,15.92-.08,31.84-.06,47.76,0,1.89,0,3.46.23,3.46,2.16v8.22c0,1.46-1.8,1.5-2.94,1.49-5,0-10,.05-14.93-.05-1.71,0-2.18.51-2.17,2.19C888.26,275.78,888.23,285.28,888.23,294.78Z"/><path class="cls-1" d="M268.84,207.79v69.47c0,2.73-.45,3.22-3.1,3.22H242.42c-3.48,0-4-.62-4-4.11q0-27.6,0-55.21c0-2.29-.65-2.93-3-2.93l-54.78,0c-2.9,0-3.68,1-3.16,4a14.1,14.1,0,0,1,.15,2.25q0,25.8,0,51.6c0,3.4-1,4.4-4.46,4.4H150.61c-2.82,0-3.51-.69-3.51-3.42q0-68.46,0-136.91c0-1,0-2,0-2.94A2.58,2.58,0,0,1,150,134.4c8.07,0,16.14-.05,24.22,0,2.52,0,3.45,1.45,3.46,4.82,0,6.86,0,13.73,0,20.59q0,14,0,28.06a12.67,12.67,0,0,1-.17,2.47c-.64,3.34.15,4.37,3.46,4.36l47.54,0c2.34,0,4.68.06,7,.07s3-.76,3-3l-.09-52.5c0-4.41.5-4.89,4.95-4.88q10.86,0,21.73,0c3.08,0,3.7.57,3.71,3.71q0,34.85,0,69.7Z"/><path class="cls-1" d="M327,263.38c.17,9.84-8.68,17.72-17.16,17.1-7.65.86-17-7.27-16.91-17.07.08-9.48,8.23-17.13,16.8-17.05C319.1,246.45,326.83,253.2,327,263.38Z"/></g></g></svg>