<svg xmlns="http://www.w3.org/2000/svg" viewBox="0 0 1033.81 412.82"><defs><style>.cls-1{fill:#fff;}</style></defs><g id="Layer_2" data-name="Layer 2"><g id="Layer_1-2" data-name="Layer 1"><path class="cls-1" d="M483,120.58c-35.26-35.1-78.39-52.08-128.13-50.13-44.28,1.73-82.62,18.66-113.9,50.11-34.76,34.95-51.64,77.6-50.11,126.82a170.68,170.68,0,0,0,173,165.43c93.92-.85,169.16-76.94,169.38-178C532.48,194.53,516.31,153.74,483,120.58ZM467,250.06c-3.63,54.17-51.53,98.45-104.58,96.33-51.49,2.34-104.87-41.47-104.83-104.55,0-60.33,49.9-104.63,104.9-104.88C415.94,136.72,471.49,182.32,467,250.06Z"/><path class="cls-1" d="M1032.94,340.73l-15.45-42.4L975.37,182.82Q964.53,153,953.72,123.24a3,3,0,0,0-3.41-2.35q-39.06.1-78.11,0a2.69,2.69,0,0,0-3.05,2.13q-22.38,61.6-44.9,123.17-16.25,44.49-32.48,89c-.95,2.62-1.85,5.27-2.84,8.08h2.41c22.56,0,45.12,0,67.69.06,2.11,0,2.83-.77,3.35-2.6,2.36-8.26,4.83-16.49,7.27-24.73,1.18-4,1.2-4,5.38-4h72c1.16,0,2.23-.26,2.72,1.48,2.6,9.12,5.42,18.18,8,27.29.55,1.91,1.34,2.53,3.38,2.52,23.39-.08,46.78-.05,70.18-.05h2.48C1033.47,342.27,1033.21,341.49,1032.94,340.73ZM886.26,262a12,12,0,0,1,.26-1.79q11.25-37.89,22.55-75.76a6.41,6.41,0,0,1,1.19-1.67,6.91,6.91,0,0,1,1,1.57q11.25,38.13,22.44,76.27A12.93,12.93,0,0,1,934,262Z"/><path class="cls-1" d="M705.19,253.3h65.45c-.24,5-.18,9.88-.78,14.7a102.22,102.22,0,0,1-5.44,23.14c-6.66,17.9-18.37,31.47-34.86,41-11.34,6.55-23.62,10.29-36.46,12.6-13.19,2.36-26.49,2.69-39.77,2.07-16.72-.79-33.09-3.7-48.54-10.57-23-10.23-38.82-27.31-47.74-50.81a134.1,134.1,0,0,1-7.28-30.56,182.55,182.55,0,0,1-1.18-32.2c.8-17.25,3.7-34.14,11-50,10.65-23.34,28.31-38.95,52.32-47.62,14.6-5.27,29.76-7.34,45.18-7.9,16.21-.6,32.23.7,47.87,5.19C726,128.36,743.66,139.49,756.1,158A81.3,81.3,0,0,1,769,192.55c.9,6.36,1.28,12.79,1.92,19.4H703c-.49-4-.72-8.1-1.52-12-2.15-10.57-7.29-19.24-16.89-24.8a34.53,34.53,0,0,0-15.22-4.58c-7.53-.49-15-.42-22.35,2.08C637,176,630.57,183,626.46,192.33a63.68,63.68,0,0,0-5,24.56c-.16,7.91-.27,15.83-.23,23.74.06,9.26.69,18.46,3.84,27.3,3.49,9.8,9,18,18.87,22.23a47.79,47.79,0,0,0,13.85,3.54c8.8.86,17.59.13,25.87-3.42,12.11-5.18,18.44-14.79,20.57-27.45C704.73,259.73,704.87,256.56,705.19,253.3Z"/><path class="cls-1" d="M185.34,342.79H.05v-2.42q0-108.53,0-217.06c0-2.38.73-2.84,3-2.83q32.72.12,65.43,0c2.29,0,2.89.59,2.89,2.89q-.1,79.79,0,159.57v3.29H182.37c3,0,3,0,3,2.92v53.65Z"/><path class="cls-1" d="M569.33,46.7c1,25.32-21.66,48-48.56,46.86-22.21-.93-44.92-19.85-44.76-47.12A47.05,47.05,0,0,1,522.86,0C548.73,0,570.09,21.69,569.33,46.7Z"/></g></g></svg>